<?xml version="1.0" encoding="UTF-8" standalone="no"?>
<svg
   width="82"
   height="82"
   viewBox="0 0 21.695833 21.695834"
   version="1.1"
   id="svg8"
   xmlns="http://www.w3.org/2000/svg"
   xmlns:svg="http://www.w3.org/2000/svg"
   xmlns:rdf="http://www.w3.org/1999/02/22-rdf-syntax-ns#"
   xmlns:cc="http://creativecommons.org/ns#"
   xmlns:dc="http://purl.org/dc/elements/1.1/">
  <defs
     id="defs2" />
  <metadata
     id="metadata5">
    <rdf:RDF>
      <cc:Work
         rdf:about="">
        <dc:format>image/svg+xml</dc:format>
        <dc:type
           rdf:resource="http://purl.org/dc/dcmitype/StillImage" />
      </cc:Work>
    </rdf:RDF>
  </metadata>
  <g
     id="g853"
     transform="matrix(0.90181595,0,0,0.90181595,4.2669487,0.49962634)"
     style="stroke-width:1.10887">
    <path
       style="opacity:1;vector-effect:none;fill:#000000;fill-opacity:1;stroke:none;stroke-width:0.50374;stroke-linecap:round;stroke-linejoin:round;stroke-miterlimit:4;stroke-dasharray:none;stroke-dashoffset:0;stroke-opacity:1"
       d="M 8.8202899,5.2804328 V 14.149375 H 11.520162 V 10.133872 H 10.975905 V 5.2804328 Z m 3.9514441,0 v 4.8534392 h -0.544257 v 4.015503 h 2.47265 V 10.133872 H 14.15587 V 5.2804328 Z m 3.179965,0 v 4.8534392 h -0.544257 v 4.015503 h 2.699872 V 5.2804328 Z"
       id="rect1565" />
    <path
       style="opacity:1;vector-effect:none;fill:#000000;fill-opacity:1;stroke:none;stroke-width:0.50374;stroke-linecap:round;stroke-linejoin:round;stroke-miterlimit:4;stroke-dasharray:none;stroke-dashoffset:0;stroke-opacity:1"
       d="M 3.5525854,1.5672202 V 4.6584587 14.185753 H 8.1131379 V 4.6584587 H 18.143248 V 1.5672202 H 8.1131379 Z m 6.5058856,0.69473 c 0.500577,-4.19e-5 0.906385,0.4057665 0.906343,0.9063434 4.2e-5,0.5005769 -0.405766,0.9063851 -0.906343,0.9063432 C 9.557894,4.0746787 9.1520858,3.6688705 9.1521277,3.1682936 9.1520857,2.6677166 9.5578939,2.2619083 10.058471,2.2619502 Z m 2.725684,0 c 0.500577,-4.24e-5 0.906386,0.4057661 0.906344,0.9063434 4.2e-5,0.5005772 -0.405767,0.9063856 -0.906344,0.9063432 -0.500577,4.18e-5 -0.906385,-0.4057664 -0.906343,-0.9063432 -4.2e-5,-0.5005769 0.405766,-0.9063852 0.906343,-0.9063434 z m 2.725685,0 c 0.500577,-4.18e-5 0.906385,0.4057665 0.906343,0.9063434 4.2e-5,0.5005768 -0.405766,0.906385 -0.906343,0.9063432 -0.500577,4.24e-5 -0.906386,-0.405766 -0.906344,-0.9063432 -4.2e-5,-0.5005773 0.405767,-0.9063858 0.906344,-0.9063434 z M 5.172735,7.3876921 H 6.4433014 V 11.886136 H 5.172735 Z"
       id="rect1581" />
  </g>
  <path
     d="M 0.96577307,10.894639 C 1.5370821,10.508548 1.9637556,10.216276 2.2385619,10.014212 2.5133683,9.8157532 2.8026384,9.5667816 3.0991398,9.2708997 3.3956414,8.9750191 3.645137,8.6394469 3.8476268,8.267792 4.006725,7.9935615 4.1441282,7.6760307 4.2562207,7.3151996 4.3683143,6.9579773 4.4261658,6.6115813 4.4370141,6.2832255 4.4370141,5.9765189 4.3972457,5.6842466 4.314072,5.4100149 4.2345229,5.1321756 4.0971197,4.904853 3.9018612,4.7208293 3.7066053,4.5404146 3.4534927,4.4502066 3.1389118,4.4502066 c -0.303734,0 -0.5893873,0.061344 -0.8569623,0.1804146 -0.2639596,0.122687 -0.4519842,0.3175321 -0.5568454,0.5917625 0,0.025254 -0.014459,0.057732 -0.036156,0.1046419 0.00724,0.057732 0.036156,0.1010307 0.090397,0.1335082 0.054241,0.032478 0.1012453,0.04691 0.1446358,0.04691 0.021697,0 0.08316,-0.010879 0.1771777,-0.032478 0.097634,-0.021656 0.1771778,-0.036089 0.242263,-0.036089 0.1916416,0 0.3615882,0.068553 0.5170708,0.2020642 0.1518671,0.1335082 0.2277993,0.2958812 0.2277993,0.4871216 0,0.1371159 -0.039768,0.2670155 -0.115706,0.3860888 C 2.8966482,6.6332327 2.791791,6.7306497 2.6580035,6.7992077 2.5242134,6.8713707 2.3759659,6.9038483 2.2168677,6.9038483 1.9275975,6.9038483 1.6817175,6.8172454 1.479229,6.6404441 1.2803553,6.4600304 1.179111,6.2327077 1.179111,5.9476516 1.179111,5.5832131 1.2912046,5.2692901 1.5117714,5.0022761 1.7359564,4.7352623 2.017994,4.5368043 2.3651182,4.4032974 2.7086268,4.2661816 3.055751,4.2012319 3.4101066,4.2012319 c 0.3868987,0 0.7557181,0.097419 1.0992267,0.2958811 0.3471243,0.194849 0.618315,0.4654719 0.8208034,0.8010444 0.2024885,0.3391801 0.3073497,0.7000095 0.3073497,1.0897063 0,0.6927957 -0.2314161,1.3350736 -0.6942484,1.9304436 C 4.4804056,8.9136774 3.9090978,9.4296645 3.2256975,9.8698773 2.7700965,10.169367 2.0324578,10.573496 1.0163972,11.082268 Z M 5.9882249,5.3125917 c 0,-0.1298967 0.047004,-0.238148 0.1410188,-0.3247471 0.090397,-0.090209 0.2024898,-0.1335083 0.3362761,-0.1335083 0.115706,0 0.2241848,0.050523 0.3218135,0.1479412 0.097634,0.093822 0.1446357,0.2056732 0.1446357,0.3283547 0,0.1298967 -0.05063,0.2417568 -0.1446357,0.3319649 -0.1012454,0.086598 -0.2133367,0.1298968 -0.3398917,0.1298968 -0.1337902,0 -0.2422644,-0.043299 -0.3290448,-0.1407234 C 6.0316111,5.5579494 5.9882182,5.4460973 5.9882182,5.3125904 Z m 0,1.8907509 c 0,-0.1298971 0.047004,-0.2417577 0.1337903,-0.3283558 0.090397,-0.090213 0.2024885,-0.1335083 0.3435073,-0.1335083 0.115706,0 0.2205692,0.046905 0.3218135,0.1443321 0.09401,0.097421 0.1446357,0.2020651 0.1446357,0.3175308 0,0.1407234 -0.047004,0.2525804 -0.1374045,0.3427885 -0.094008,0.090213 -0.2024885,0.1371146 -0.3290447,0.1371146 -0.1410188,0 -0.2531113,-0.046905 -0.3435073,-0.1335083 C 6.0352293,7.4631332 5.9882249,7.3476724 5.9882249,7.2033402 Z"
     style="fill:#000000;stroke:none;stroke-width:0.164322"
     id="path2070" />
</svg>
