<?xml version="1.0" encoding="UTF-8" standalone="no"?>
<svg
   xmlns:dc="http://purl.org/dc/elements/1.1/"
   xmlns:cc="http://creativecommons.org/ns#"
   xmlns:rdf="http://www.w3.org/1999/02/22-rdf-syntax-ns#"
   xmlns:svg="http://www.w3.org/2000/svg"
   xmlns="http://www.w3.org/2000/svg"
   width="82"
   height="82"
   viewBox="0 0 21.695833 21.695834"
   version="1.1"
   id="svg8">
  <defs
     id="defs2" />
  <metadata
     id="metadata5">
    <rdf:RDF>
      <cc:Work
         rdf:about="">
        <dc:format>image/svg+xml</dc:format>
        <dc:type
           rdf:resource="http://purl.org/dc/dcmitype/StillImage" />
        <dc:title></dc:title>
      </cc:Work>
    </rdf:RDF>
  </metadata>
  <g
     id="layer1"
     transform="translate(0,-275.30415)">
    <path
       id="path271452"
       d="m 9.1255067,283.92566 c 0.07224,0.13625 0.02048,0.23553 -0.14389,0.38851 -0.16437,0.15299 -0.434464,0.48999 -0.507216,0.76262 -0.07275,0.27264 0.0139,0.55799 0.122308,0.75543 0.1084,0.19744 0.240525,0.38279 0.471243,0.35253 0.230716,-0.0303 0.388504,-0.1295 0.388504,-0.1295 l 6.5650243,-6.34918 c 0,0 -0.150544,-0.31561 0.07914,-0.46046 0.229683,-0.14483 2.704127,-1.4994 3.044995,-1.56029 0.340865,-0.0609 0.53589,0.0966 0.577458,0.34082 0.04157,0.24421 -0.0084,0.45973 -0.366921,0.63312 -0.358524,0.1734 -0.424262,-0.13255 -0.69787,0.0935 -0.273609,0.22608 -0.829969,1.33402 -0.941253,1.39698 -0.111283,0.063 -0.43866,-0.13451 -0.724255,7e-5 -0.285594,0.13459 -0.334577,0.22892 -0.334577,0.22892 l -7.1710813,7.39809 c 0,0 -0.268745,0.35865 0.39681,0.81397 0.6655543,0.45532 1.3149633,-0.0988 1.4227023,-0.2112 0.107739,-0.11243 0.485625,0.0826 0.423225,0.3531 -0.0624,0.27047 7.94e-4,0.22766 -0.20864,0.47469 -0.209487,0.24704 -0.397093,0.42692 -0.748038,0.65749 -0.350946,0.23058 -0.62642,0.31056 -1.2046623,0.5777 -0.578242,0.26715 -0.816981,1.7304 -1.182831,2.3564 -0.365851,0.62601 -0.529625,1.03205 -0.976041,1.36443 -0.446417,0.33238 -0.851229,0.54189 -1.598862,0.44459 -0.747633,-0.0973 -1.671141,-1.02653 -2.331523,-1.66206 -0.660383,-0.63552 -1.214891,-1.24262 -1.414167,-1.94139 -0.199276,-0.69878 -0.09503,-1.1993 0.153854,-1.7193 0.248883,-0.52 0.681478,-0.81667 1.209035,-1.15282 0.527557,-0.33615 1.518927,-0.51432 2.055996,-0.86855 0.537069,-0.35422 0.809858,-0.68208 1.123829,-1.21437 0.313971,-0.53229 0.661286,-1.33305 1.052201,-1.71879 0.390915,-0.38575 0.724698,-0.58198 1.017973,-0.58592 0.293275,-0.004 0.375295,0.0446 0.44753,0.18084 z"
       style="opacity:1;fill:#000000;stroke:none;stroke-width:0.26458335px;stroke-linecap:butt;stroke-linejoin:miter;stroke-opacity:1" />
    <path
       id="path4917"
       d="m 2.0948521,277.20847 c -0.090455,0.0619 -0.046139,0.18331 -0.056631,0.2751 0,1.93379 0,3.86757 0,5.80135 0.00266,0.0861 0.093771,0.12164 0.1685173,0.10864 1.361303,0 2.7226054,0 4.0839142,0 0.086155,-0.003 0.1216229,-0.0938 0.108605,-0.16851 -0.00165,-0.3692 0.0033,-0.7392 -0.00247,-1.10786 -0.00678,-0.0924 -0.1113352,-0.10877 -0.185829,-0.0991 -0.9485208,-0.004 -1.8971447,0.001 -2.8456027,-0.0103 -0.013535,-1.25853 -0.00698,-2.51719 -0.010684,-3.77577 -0.00197,-0.31249 0.00266,-0.62579 -0.00342,-0.93775 -0.00689,-0.0924 -0.1115077,-0.10865 -0.186013,-0.0989 -0.3425757,10e-4 -0.6859794,-0.003 -1.0280379,0.003 -0.014099,0.004 -0.028205,0.008 -0.042303,0.0103 z"
       style="opacity:1;vector-effect:none;fill:#000000;fill-opacity:1;stroke:none;stroke-width:0.26458335px;stroke-linecap:butt;stroke-linejoin:miter;stroke-miterlimit:4;stroke-dasharray:none;stroke-dashoffset:0;stroke-opacity:1" />
  </g>
</svg>
