<?xml version="1.0" encoding="UTF-8" standalone="no"?>
<svg
   xmlns:dc="http://purl.org/dc/elements/1.1/"
   xmlns:cc="http://creativecommons.org/ns#"
   xmlns:rdf="http://www.w3.org/1999/02/22-rdf-syntax-ns#"
   xmlns:svg="http://www.w3.org/2000/svg"
   xmlns="http://www.w3.org/2000/svg"
   xmlns:sodipodi="http://sodipodi.sourceforge.net/DTD/sodipodi-0.dtd"
   xmlns:inkscape="http://www.inkscape.org/namespaces/inkscape"
   id="svg8"
   version="1.1"
   viewBox="0 0 21.695833 21.695834"
   height="82"
   width="82"
   sodipodi:docname="guitar-main.svg"
   inkscape:version="0.92.5 (2060ec1f9f, 2020-04-08)">
  <sodipodi:namedview
     pagecolor="#ffffff"
     bordercolor="#666666"
     borderopacity="1"
     objecttolerance="10"
     gridtolerance="10"
     guidetolerance="10"
     inkscape:pageopacity="0"
     inkscape:pageshadow="2"
     inkscape:window-width="2560"
     inkscape:window-height="1364"
     id="namedview3724"
     showgrid="false"
     inkscape:zoom="2.8780488"
     inkscape:cx="-92.447111"
     inkscape:cy="11.255981"
     inkscape:window-x="2560"
     inkscape:window-y="40"
     inkscape:window-maximized="1"
     inkscape:current-layer="layer1" />
  <defs
     id="defs2" />
  <metadata
     id="metadata5">
    <rdf:RDF>
      <cc:Work
         rdf:about="">
        <dc:format>image/svg+xml</dc:format>
        <dc:type
           rdf:resource="http://purl.org/dc/dcmitype/StillImage" />
        <dc:title></dc:title>
      </cc:Work>
    </rdf:RDF>
  </metadata>
  <g
     transform="translate(0,-275.30415)"
     id="layer1">
    <path
       inkscape:connector-curvature="0"
       style="opacity:1;fill:#000000;stroke:none;stroke-width:0.26458335px;stroke-linecap:butt;stroke-linejoin:miter;stroke-opacity:1"
       d="m 9.125507,283.92566 c 0.072236,0.13625 0.020479,0.23553 -0.1438907,0.38851 -0.1643695,0.15299 -0.4344641,0.48999 -0.5072155,0.76262 -0.072751,0.27264 0.013904,0.55799 0.1223073,0.75543 0.1084003,0.19744 0.2405258,0.38279 0.471243,0.35253 0.2307168,-0.0303 0.3885048,-0.1295 0.3885048,-0.1295 l 6.5650241,-6.34918 c 0,0 -0.150544,-0.31561 0.07914,-0.46046 0.229683,-0.14483 2.704127,-1.4994 3.044995,-1.56029 0.340865,-0.0609 0.53589,0.0966 0.577458,0.34082 0.04157,0.24421 -0.0084,0.45973 -0.366921,0.63312 -0.358524,0.1734 -0.424262,-0.13255 -0.69787,0.0935 -0.273609,0.22608 -0.829969,1.33402 -0.941253,1.39698 -0.111283,0.063 -0.43866,-0.13451 -0.724255,7e-5 -0.285594,0.13459 -0.334577,0.22892 -0.334577,0.22892 l -7.1710811,7.39809 c 0,0 -0.2687449,0.35865 0.39681,0.81397 0.6655541,0.45532 1.3149631,-0.0988 1.4227021,-0.2112 0.107739,-0.11243 0.485625,0.0826 0.423225,0.3531 -0.0624,0.27047 7.94e-4,0.22766 -0.20864,0.47469 -0.209487,0.24704 -0.397093,0.42692 -0.748038,0.65749 -0.350946,0.23058 -0.62642,0.31056 -1.2046621,0.5777 -0.5782424,0.26715 -0.8169817,1.7304 -1.1828317,2.3564 -0.3658502,0.62601 -0.5296244,1.03205 -0.9760408,1.36443 -0.4464166,0.33238 -0.8512291,0.54189 -1.598862,0.44459 -0.7476329,-0.0973 -1.6711412,-1.02653 -2.3315232,-1.66206 -0.6603823,-0.63552 -1.2148908,-1.24262 -1.4141665,-1.94139 -0.1992765,-0.69878 -0.095029,-1.1993 0.1538537,-1.7193 0.2488829,-0.52 0.6814777,-0.81667 1.2090349,-1.15282 0.527557,-0.33615 1.5189273,-0.51432 2.055996,-0.86855 0.5370692,-0.35422 0.8098586,-0.68208 1.1238296,-1.21437 0.313971,-0.53229 0.6612858,-1.33305 1.0522006,-1.71879 0.3909147,-0.38575 0.724698,-0.58198 1.0179732,-0.58592 0.2932748,-0.004 0.3752951,0.0446 0.4475303,0.18084 z"
       id="path271452"
       sodipodi:nodetypes="zzzzzcczzzzzzzcczzzzzzzzzzzzzzzzzz" />
  </g>
</svg>
