<?xml version="1.0" encoding="UTF-8" standalone="no"?>
<svg
   xmlns:dc="http://purl.org/dc/elements/1.1/"
   xmlns:cc="http://creativecommons.org/ns#"
   xmlns:rdf="http://www.w3.org/1999/02/22-rdf-syntax-ns#"
   xmlns:svg="http://www.w3.org/2000/svg"
   xmlns="http://www.w3.org/2000/svg"
   width="82"
   height="82"
   viewBox="0 0 21.695833 21.695834"
   version="1.1"
   id="svg8">
  <defs
     id="defs2" />
  <metadata
     id="metadata5">
    <rdf:RDF>
      <cc:Work
         rdf:about="">
        <dc:format>image/svg+xml</dc:format>
        <dc:type
           rdf:resource="http://purl.org/dc/dcmitype/StillImage" />
        <dc:title></dc:title>
      </cc:Work>
    </rdf:RDF>
  </metadata>
  <g
     id="layer1"
     transform="translate(0,-275.30415)">
    <path
       id="path271452"
       d="m 12.570327,283.92566 c -0.07224,0.13625 -0.02048,0.23553 0.14389,0.38851 0.16437,0.15299 0.434464,0.48999 0.507216,0.76262 0.07275,0.27264 -0.0139,0.55799 -0.122308,0.75543 -0.1084,0.19744 -0.240525,0.38279 -0.471243,0.35253 -0.230716,-0.0303 -0.388504,-0.1295 -0.388504,-0.1295 l -6.5650244,-6.34918 c 0,0 0.150544,-0.31561 -0.07914,-0.46046 -0.229683,-0.14483 -2.704127,-1.4994 -3.044995,-1.56029 -0.340865,-0.0609 -0.53589,0.0966 -0.577458,0.34082 -0.04157,0.24421 0.0084,0.45973 0.366921,0.63312 0.358524,0.1734 0.424262,-0.13255 0.69787,0.0935 0.273609,0.22608 0.829969,1.33402 0.941253,1.39698 0.111283,0.063 0.43866,-0.13451 0.724255,7e-5 0.285594,0.13459 0.334577,0.22892 0.334577,0.22892 l 7.1710814,7.39809 c 0,0 0.268745,0.35865 -0.39681,0.81397 -0.665554,0.45532 -1.314963,-0.0988 -1.422702,-0.2112 -0.107739,-0.11243 -0.4856254,0.0826 -0.4232254,0.3531 0.0624,0.27047 -7.94e-4,0.22766 0.2086404,0.47469 0.209487,0.24704 0.397093,0.42692 0.748038,0.65749 0.350946,0.23058 0.62642,0.31056 1.204662,0.5777 0.578242,0.26715 0.816981,1.7304 1.182831,2.3564 0.365851,0.62601 0.529625,1.03205 0.976041,1.36443 0.446417,0.33238 0.851229,0.54189 1.598862,0.44459 0.747633,-0.0973 1.671141,-1.02653 2.331523,-1.66206 0.660383,-0.63552 1.214891,-1.24262 1.414167,-1.94139 0.199276,-0.69878 0.09503,-1.1993 -0.153854,-1.7193 -0.248883,-0.52 -0.681478,-0.81667 -1.209035,-1.15282 -0.527557,-0.33615 -1.518927,-0.51432 -2.055996,-0.86855 -0.537069,-0.35422 -0.809858,-0.68208 -1.123829,-1.21437 -0.313971,-0.53229 -0.661286,-1.33305 -1.052201,-1.71879 -0.390915,-0.38575 -0.724698,-0.58198 -1.017973,-0.58592 -0.293275,-0.004 -0.375295,0.0446 -0.44753,0.18084 z"
       style="opacity:1;fill:#000000;stroke:none;stroke-width:0.26458335px;stroke-linecap:butt;stroke-linejoin:miter;stroke-opacity:1" />
    <path
       id="path4919"
       d="m 15.10015,276.86092 c -0.09046,0.0619 -0.04614,0.1833 -0.05664,0.2751 0,1.93378 0,3.86757 0,5.80135 0.0027,0.0861 0.09377,0.12164 0.168517,0.10864 0.3526,-0.001 0.706027,0.003 1.058116,-0.003 0.09251,-0.006 0.10876,-0.11148 0.09893,-0.18604 0.001,-0.3398 -0.0023,-0.67965 0.0027,-1.01943 0.230814,-10e-4 0.452491,-0.0346 0.681984,-0.0333 0.179628,-0.004 0.358698,-0.006 0.538813,-0.009 0.02055,0.0346 0.05596,0.0578 0.04919,0.10323 0.0013,0.0565 0.05829,0.0833 0.06201,0.13735 0.01698,0.0453 0.05448,0.0769 0.05583,0.12718 0.01107,0.0487 0.06378,0.0788 0.0511,0.13276 -0.0028,0.0476 0.03835,0.0794 0.0587,0.11263 5.56e-4,0.0602 0.05826,0.0932 0.06385,0.14986 0.01483,0.0469 0.05796,0.0788 0.05094,0.13148 -5.55e-4,0.0483 0.04579,0.0789 0.05567,0.11817 -0.0024,0.0485 0.03513,0.0846 0.05858,0.11869 5.56e-4,0.0844 0.08334,0.13423 0.161369,0.11919 0.380625,-0.004 0.761794,0.008 1.142086,-0.008 0.09084,-0.003 0.137899,-0.12538 0.07331,-0.18853 -5.82e-4,-0.0502 -0.03105,-0.0933 -0.05874,-0.13009 -0.0019,-0.0539 -0.03068,-0.10027 -0.06046,-0.14183 8.99e-4,-0.0507 -0.01523,-0.10671 -0.05769,-0.13901 -0.0017,-0.0481 -0.02623,-0.0933 -0.05378,-0.12795 -8.21e-4,-0.0528 -0.03642,-0.0963 -0.05956,-0.13897 0.0067,-0.0572 -0.01849,-0.11354 -0.06023,-0.14874 -0.0046,-0.063 -0.06412,-0.10247 -0.06152,-0.16634 -0.0053,-0.0547 -0.05754,-0.086 -0.05627,-0.14121 -0.0112,-0.0502 -0.06524,-0.0757 -0.05877,-0.13076 -0.0067,-0.051 -0.0673,-0.077 -0.05413,-0.13203 -0.0017,-0.0296 -0.02916,-0.0675 0.01398,-0.0761 0.06196,-0.008 0.09056,-0.0676 0.136452,-0.10118 0.04198,-0.0417 0.09611,-0.0736 0.137453,-0.11868 0.06431,-0.0318 0.09247,-0.099 0.144211,-0.14582 0.06253,-0.061 0.105541,-0.13718 0.173346,-0.19132 0.01819,-0.0438 0.05072,-0.075 0.07336,-0.11637 0.01597,-0.047 0.07207,-0.073 0.07122,-0.12956 0.04601,-0.0493 0.05717,-0.1156 0.0955,-0.16935 0.01358,-0.0442 0.03069,-0.0832 0.05919,-0.11959 0.0215,-0.0371 0.0022,-0.0853 0.04563,-0.10838 0.04523,-0.0505 0.01568,-0.12358 0.03768,-0.17902 0.06943,-0.0879 0.03759,-0.20671 0.06305,-0.30621 0.06259,-0.10118 0.02876,-0.22829 0.03857,-0.34054 -0.0053,-0.11045 0.0103,-0.22491 -0.01842,-0.33244 -0.06681,-0.0872 0.0021,-0.21574 -0.06377,-0.30662 -0.05829,-0.0534 -0.0019,-0.14629 -0.05457,-0.20526 -0.03145,-0.0212 -0.03585,-0.049 -0.04056,-0.0844 -0.01447,-0.0471 -0.05574,-0.0779 -0.06162,-0.12874 -0.02387,-0.0453 -0.04626,-0.0886 -0.06459,-0.13605 -0.02093,-0.026 -0.04406,-0.0445 -0.04226,-0.0808 -0.01236,-0.053 -0.07053,-0.0703 -0.08547,-0.12152 -0.03915,-0.0367 -0.04455,-0.0987 -0.09656,-0.12383 -0.114089,-0.14521 -0.245213,-0.2788 -0.386182,-0.39794 -0.04274,-0.0337 -0.07815,-0.0759 -0.121889,-0.10903 -0.04732,-0.014 -0.08397,-0.049 -0.125262,-0.0729 -0.02371,-0.0422 -0.07382,-0.0588 -0.115865,-0.0675 -0.02764,-0.0427 -0.08192,-0.0481 -0.12364,-0.0637 -0.04083,-0.04 -0.104061,-0.0342 -0.139228,-0.0793 -0.05051,-0.0375 -0.124323,-0.004 -0.165455,-0.0575 -0.04906,-0.0335 -0.116535,-0.0142 -0.165356,-0.0362 -0.08774,-0.0691 -0.209268,-0.0381 -0.312097,-0.0526 -0.08502,0.006 -0.152304,-0.0637 -0.238649,-0.0463 -0.806487,10e-4 -1.613803,-0.003 -2.419774,0.003 -0.0141,0.004 -0.0282,0.008 -0.0423,0.0103 z m 1.721575,1.35303 c 0.323483,0.003 0.647719,-0.004 0.970742,0.0103 0.04481,0.0256 0.09335,0.0502 0.146965,0.0525 0.02397,0.0451 0.08075,0.0498 0.119778,0.0631 0.03235,0.0489 0.09697,0.0425 0.134332,0.0846 0.04035,0.0199 0.0658,0.0596 0.100573,0.0872 0.03461,0.0377 0.0755,0.0712 0.105451,0.1116 0.02881,0.032 0.04519,0.0651 0.05683,0.10607 0.02069,0.0317 0.05218,0.0492 0.05088,0.0909 0.0075,0.0431 0.06213,0.0561 0.05486,0.10246 0.01133,0.0564 0.06625,0.0926 0.05464,0.15514 -0.0042,0.0668 0.01359,0.13189 0.04261,0.19068 0.0014,0.0687 0.01533,0.14578 -0.02952,0.20308 -0.02628,0.068 0.005,0.15125 -0.03074,0.21358 -0.0335,0.0282 -0.03236,0.0789 -0.04749,0.11147 -0.04229,0.0245 -0.04751,0.0783 -0.05894,0.11663 -0.05267,0.0315 -0.03934,0.10105 -0.08587,0.13498 -0.03407,0.0529 -0.08459,0.095 -0.128647,0.13866 -0.04348,0.0232 -0.0617,0.0694 -0.107447,0.0901 -0.0324,0.031 -0.08721,0.0297 -0.111566,0.0735 -0.04664,10e-4 -0.08654,0.0303 -0.120782,0.0559 -0.07294,0.008 -0.128454,0.0671 -0.204308,0.0555 -0.45325,0.0135 -0.906891,0.0103 -1.360257,0.005 5.66e-4,-0.74966 -0.0077,-1.49937 0,-2.24899 0.149327,-0.004 0.298723,-0.003 0.448084,-0.003 z m 3.077856,0.74642 c 0.06667,0.0313 -0.03894,-0.0116 0,0 z m -1.204849,0.44269 c 0.01673,-0.008 0.0121,-0.004 0,0 z m -0.484977,0.87868 c 0,-6.4e-4 0.0012,-0.006 0,0 z m 1.063978,0.76422 c -0.0018,0.008 0.001,-0.006 0,0 z m -0.09931,0.10144 c -0.01381,0.003 0.0121,-0.003 0,0 z m 0.01551,1.1443 c 0.01159,0.003 -0.0073,-10e-4 0,0 z"
       style="opacity:1;vector-effect:none;fill:#000000;fill-opacity:1;stroke:none;stroke-width:0.26458335px;stroke-linecap:butt;stroke-linejoin:miter;stroke-miterlimit:4;stroke-dasharray:none;stroke-dashoffset:0;stroke-opacity:1" />
  </g>
</svg>
