<?xml version="1.0" encoding="UTF-8" standalone="no"?>
<svg
   xmlns:dc="http://purl.org/dc/elements/1.1/"
   xmlns:cc="http://creativecommons.org/ns#"
   xmlns:rdf="http://www.w3.org/1999/02/22-rdf-syntax-ns#"
   xmlns:svg="http://www.w3.org/2000/svg"
   xmlns="http://www.w3.org/2000/svg"
   id="svg8"
   version="1.1"
   viewBox="0 0 21.695833 21.695834"
   height="82"
   width="82">
  <defs
     id="defs2" />
  <metadata
     id="metadata5">
    <rdf:RDF>
      <cc:Work
         rdf:about="">
        <dc:format>image/svg+xml</dc:format>
        <dc:type
           rdf:resource="http://purl.org/dc/dcmitype/StillImage" />
        <dc:title></dc:title>
      </cc:Work>
    </rdf:RDF>
  </metadata>
  <g
     transform="translate(0,-275.30415)"
     id="layer1">
    <path
       style="opacity:1;fill:#000000;stroke:none;stroke-width:0.26458335px;stroke-linecap:butt;stroke-linejoin:miter;stroke-opacity:1"
       d="m 10.039662,286.2661 c 0.02669,0.12918 -0.03959,0.19831 -0.2111946,0.28457 -0.1716097,0.0863 -0.4741016,0.29831 -0.5991295,0.50476 -0.12503,0.20646 -0.122207,0.46153 -0.080473,0.64961 0.041731,0.18809 0.1058402,0.37193 0.3025409,0.40234 0.1967098,0.0304 0.3500338,-0.0133 0.3500338,-0.0133 l 6.9113564,-3.6415 c 0,0 -0.04804,-0.29522 0.175254,-0.35916 0.223288,-0.0639 2.57957,-0.58367 2.874057,-0.55204 0.294486,0.0317 0.416914,0.20766 0.392564,0.41815 -0.02434,0.21049 -0.116991,0.3755 -0.452915,0.43203 -0.335927,0.0565 -0.316642,-0.21045 -0.595449,-0.0904 -0.278815,0.12012 -1.000995,0.89668 -1.107454,0.92173 -0.106466,0.0251 -0.327995,-0.2155 -0.594741,-0.17338 -0.266746,0.0421 -0.329559,0.10785 -0.329559,0.10785 l -7.6602086,4.35768 c 0,0 -0.3065682,0.23015 0.1309169,0.76342 0.4374844,0.53327 1.1034457,0.23377 1.2188327,0.16727 0.115395,-0.0666 0.378992,0.18412 0.262975,0.3913 -0.116011,0.20716 -0.05387,0.18713 -0.285002,0.33983 -0.23118,0.15269 -0.42831,0.25547 -0.7717054,0.36077 -0.3433985,0.10529 -0.5887579,0.105 -1.1275565,0.18588 -0.5388011,0.0809 -1.0852535,1.22528 -1.5355833,1.65171 -0.4503323,0.42644 -0.6820522,0.72064 -1.1282249,0.88668 -0.4461729,0.16602 -0.8287582,0.24112 -1.4193786,-0.0178 -0.5906202,-0.25895 -1.1264353,-1.24314 -1.516517,-1.92315 -0.3900843,-0.68 -0.7000359,-1.31132 -0.6963343,-1.93284 0.0037,-0.62152 0.2091682,-1.00756 0.5380656,-1.37496 0.3288977,-0.3674 0.7551691,-0.50742 1.2688737,-0.65711 0.5137044,-0.1497 1.3704384,-0.0586 1.896283,-0.22086 0.5258427,-0.16225 0.8283587,-0.36615 1.2136467,-0.72805 0.3852881,-0.36191 0.8622482,-0.93628 1.275624,-1.15942 0.413378,-0.22314 0.7344573,-0.30434 0.9762248,-0.23735 0.2417814,0.067 0.2974942,0.1265 0.3241842,0.25567 z"
       id="path271452" />
    <g
       transform="rotate(-27.632472,14.203763,282.53189)"
       id="g3284">
      <circle
         style="opacity:1;vector-effect:none;fill:#000000;fill-opacity:1;stroke:none;stroke-width:0.79375005;stroke-linecap:round;stroke-linejoin:round;stroke-miterlimit:4;stroke-dasharray:none;stroke-dashoffset:0;stroke-opacity:1"
         id="path2684"
         cx="3.4122124"
         cy="278.24594"
         r="0.83887494" />
      <rect
         style="opacity:1;vector-effect:none;fill:#000000;fill-opacity:1;stroke:none;stroke-width:0.79375005;stroke-linecap:round;stroke-linejoin:round;stroke-miterlimit:4;stroke-dasharray:none;stroke-dashoffset:0;stroke-opacity:1"
         id="rect2686"
         width="5.1711469"
         height="1.4709039"
         x="5.4691792"
         y="277.49899" />
      <circle
         r="0.83887494"
         cy="278.24594"
         cx="12.90414"
         id="circle2688"
         style="opacity:1;vector-effect:none;fill:#000000;fill-opacity:1;stroke:none;stroke-width:0.79375005;stroke-linecap:round;stroke-linejoin:round;stroke-miterlimit:4;stroke-dasharray:none;stroke-dashoffset:0;stroke-opacity:1" />
      <circle
         style="opacity:1;vector-effect:none;fill:#000000;fill-opacity:1;stroke:none;stroke-width:0.79375005;stroke-linecap:round;stroke-linejoin:round;stroke-miterlimit:4;stroke-dasharray:none;stroke-dashoffset:0;stroke-opacity:1"
         id="circle3264"
         cx="15.829383"
         cy="278.24594"
         r="0.83887494" />
      <rect
         y="279.8685"
         x="2.6159391"
         height="1.4709039"
         width="5.1711469"
         id="rect3266"
         style="opacity:1;vector-effect:none;fill:#000000;fill-opacity:1;stroke:none;stroke-width:0.79375005;stroke-linecap:round;stroke-linejoin:round;stroke-miterlimit:4;stroke-dasharray:none;stroke-dashoffset:0;stroke-opacity:1" />
      <circle
         r="0.83887494"
         cy="280.63617"
         cx="9.5486403"
         id="circle3268"
         style="opacity:1;vector-effect:none;fill:#000000;fill-opacity:1;stroke:none;stroke-width:0.79375005;stroke-linecap:round;stroke-linejoin:round;stroke-miterlimit:4;stroke-dasharray:none;stroke-dashoffset:0;stroke-opacity:1" />
      <circle
         style="opacity:1;vector-effect:none;fill:#000000;fill-opacity:1;stroke:none;stroke-width:0.79375005;stroke-linecap:round;stroke-linejoin:round;stroke-miterlimit:4;stroke-dasharray:none;stroke-dashoffset:0;stroke-opacity:1"
         id="circle3270"
         cx="12.306584"
         cy="280.63617"
         r="0.83887494" />
      <rect
         y="279.9122"
         x="14.271621"
         height="1.4709039"
         width="5.1711469"
         id="rect3274"
         style="opacity:1;vector-effect:none;fill:#000000;fill-opacity:1;stroke:none;stroke-width:0.79375005;stroke-linecap:round;stroke-linejoin:round;stroke-miterlimit:4;stroke-dasharray:none;stroke-dashoffset:0;stroke-opacity:1" />
    </g>
  </g>
</svg>
