<?xml version="1.0" encoding="UTF-8" standalone="no"?>
<svg
   xmlns:dc="http://purl.org/dc/elements/1.1/"
   xmlns:cc="http://creativecommons.org/ns#"
   xmlns:rdf="http://www.w3.org/1999/02/22-rdf-syntax-ns#"
   xmlns:svg="http://www.w3.org/2000/svg"
   xmlns="http://www.w3.org/2000/svg"
   id="svg8"
   version="1.1"
   viewBox="0 0 21.695833 21.695834"
   height="82"
   width="82">
  <defs
     id="defs2" />
  <metadata
     id="metadata5">
    <rdf:RDF>
      <cc:Work
         rdf:about="">
        <dc:format>image/svg+xml</dc:format>
        <dc:type
           rdf:resource="http://purl.org/dc/dcmitype/StillImage" />
        <dc:title></dc:title>
      </cc:Work>
    </rdf:RDF>
  </metadata>
  <g
     transform="translate(0,-275.30415)"
     id="layer1">
    <path
       id="rect835"
       d="m 3.7041646,278.41667 v 6.79648 c 0.1902638,-0.51723 0.6857249,-0.88676 1.2691732,-0.88676 h 0.6345865 c 0.5836501,0 1.0806009,0.36976 1.2712403,0.88728 v -7.85533 z m 1.2691732,6.17327 c -0.6058096,0 -1.0877891,0.48404 -1.0877891,1.08985 v 3.1781 c 0,0.6058 0.4819795,1.08986 1.0877891,1.08986 h 0.6345865 c 0.6058093,0 1.089856,-0.48406 1.089856,-1.08986 v -3.1781 c 0,-0.60581 -0.4840467,-1.08985 -1.089856,-1.08985 z m -0.6325195,3.52691 H 6.242511 v 0.79375 H 4.3408183 Z m 2.5383463,1.20716 c -0.1905757,0.51816 -0.6875026,0.88936 -1.2712403,0.88936 H 4.9733378 c -0.5833658,0 -1.0788496,-0.37068 -1.2691732,-0.88832 v 1.12448 l 1.602486,3.89485 1.572514,-3.89485 z"
       style="opacity:1;vector-effect:none;fill:#000000;fill-opacity:1;stroke:none;stroke-width:0.26458332;stroke-linecap:butt;stroke-linejoin:miter;stroke-miterlimit:4;stroke-dasharray:none;stroke-dashoffset:0;stroke-opacity:1" />
    <path
       style="opacity:1;vector-effect:none;fill:#000000;fill-opacity:1;stroke:none;stroke-width:0.26458332;stroke-linecap:butt;stroke-linejoin:miter;stroke-miterlimit:4;stroke-dasharray:none;stroke-dashoffset:0;stroke-opacity:1"
       d="m 7.4083312,277.15818 v 8.05497 c 0.1902638,-0.51723 0.6857249,-0.88676 1.2691734,-0.88676 h 0.6345857 c 0.5836497,0 1.0806007,0.36976 1.2712407,0.88728 v -9.11382 z m 1.2691734,7.43176 c -0.6058098,0 -1.0877893,0.48404 -1.0877893,1.08985 v 3.1781 c 0,0.6058 0.4819795,1.08986 1.0877893,1.08986 h 0.6345857 c 0.6058097,0 1.0898557,-0.48406 1.0898557,-1.08986 v -3.1781 c 0,-0.60581 -0.484046,-1.08985 -1.0898557,-1.08985 z m -0.6325197,3.52691 H 9.946677 v 0.79375 H 8.0449849 Z m 2.5383461,1.20716 c -0.190576,0.51816 -0.687503,0.88936 -1.2712407,0.88936 H 8.6775046 c -0.583366,0 -1.0788499,-0.37068 -1.2691734,-0.88832 v 1.12448 l 1.6024864,3.89485 1.5725134,-3.89485 z"
       id="path866" />
    <path
       id="path868"
       d="m 11.112499,276.09985 v 9.1133 c 0.190264,-0.51723 0.685725,-0.88676 1.269174,-0.88676 h 0.634586 c 0.58365,0 1.080601,0.36976 1.271241,0.88728 v -8.05549 z m 1.269174,8.49009 c -0.60581,0 -1.08779,0.48404 -1.08779,1.08985 v 3.1781 c 0,0.6058 0.48198,1.08986 1.08779,1.08986 h 0.634586 c 0.60581,0 1.089856,-0.48406 1.089856,-1.08986 v -3.1781 c 0,-0.60581 -0.484046,-1.08985 -1.089856,-1.08985 z m -0.63252,3.52691 h 1.901693 v 0.79375 h -1.901693 z m 2.538347,1.20716 c -0.190576,0.51816 -0.687503,0.88936 -1.271241,0.88936 h -0.634586 c -0.583366,0 -1.078851,-0.37068 -1.269174,-0.88832 v 1.12448 l 1.602487,3.89485 1.572514,-3.89485 z"
       style="opacity:1;vector-effect:none;fill:#000000;fill-opacity:1;stroke:none;stroke-width:0.26458332;stroke-linecap:butt;stroke-linejoin:miter;stroke-miterlimit:4;stroke-dasharray:none;stroke-dashoffset:0;stroke-opacity:1" />
    <path
       style="opacity:1;vector-effect:none;fill:#000000;fill-opacity:1;stroke:none;stroke-width:0.26458332;stroke-linecap:butt;stroke-linejoin:miter;stroke-miterlimit:4;stroke-dasharray:none;stroke-dashoffset:0;stroke-opacity:1"
       d="m 14.816668,277.35834 v 7.85481 c 0.190264,-0.51723 0.685725,-0.88676 1.269174,-0.88676 h 0.634586 c 0.58365,0 1.080601,0.36976 1.271241,0.88728 v -6.797 z m 1.269174,7.2316 c -0.60581,0 -1.08779,0.48404 -1.08779,1.08985 v 3.1781 c 0,0.6058 0.48198,1.08986 1.08779,1.08986 h 0.634586 c 0.60581,0 1.089856,-0.48406 1.089856,-1.08986 v -3.1781 c 0,-0.60581 -0.484046,-1.08985 -1.089856,-1.08985 z m -0.63252,3.52691 h 1.901693 v 0.79375 h -1.901693 z m 2.538347,1.20716 c -0.190576,0.51816 -0.687503,0.88936 -1.271241,0.88936 h -0.634586 c -0.583366,0 -1.078851,-0.37068 -1.269174,-0.88832 v 1.12448 l 1.602487,3.89485 1.572514,-3.89485 z"
       id="path870" />
  </g>
</svg>
