<?xml version="1.0" encoding="UTF-8" standalone="no"?>
<svg
   xmlns:dc="http://purl.org/dc/elements/1.1/"
   xmlns:cc="http://creativecommons.org/ns#"
   xmlns:rdf="http://www.w3.org/1999/02/22-rdf-syntax-ns#"
   xmlns:svg="http://www.w3.org/2000/svg"
   xmlns="http://www.w3.org/2000/svg"
   id="svg8"
   version="1.1"
   viewBox="0 0 21.695833 21.695834"
   height="82"
   width="82">
  <defs
     id="defs2" />
  <metadata
     id="metadata5">
    <rdf:RDF>
      <cc:Work
         rdf:about="">
        <dc:format>image/svg+xml</dc:format>
        <dc:type
           rdf:resource="http://purl.org/dc/dcmitype/StillImage" />
        <dc:title></dc:title>
      </cc:Work>
    </rdf:RDF>
  </metadata>
  <g
     transform="translate(0,-275.30415)"
     id="layer1">
    <g
       transform="translate(-0.52248551)"
       id="g1087">
      <g
         id="g1072"
         transform="rotate(9.0608628,25.71236,279.87825)">
        <path
           id="path2925"
           d="m 15.445255,281.42315 c -0.01001,0.003 -0.01999,0.005 -0.03004,0.009 -0.27355,0.0436 -0.547174,0.0872 -0.820718,0.13088 l 1.9e-5,1.3e-4 c -0.158885,0.0351 -0.330099,0.0353 -0.481144,0.0972 -0.04598,0.0457 0.01361,0.10137 0.0586,0.11159 0.01712,0.0562 0.0852,0.0764 0.09231,0.13858 0.01429,0.0366 0.07135,0.0177 0.07098,0.0632 0.03242,0.0427 0.07268,0.075 0.09894,0.1217 0.06265,0.0169 0.04739,0.10358 0.111562,0.11713 0.05381,0.0663 0.108043,0.13479 0.16813,0.19522 0.004,0.0431 0.0337,0.0745 0.07243,0.0831 0.0312,0.0531 0.08852,0.0844 0.106074,0.14496 0.05909,0.0264 0.07813,0.10115 0.135939,0.1332 0.03106,0.0523 0.07813,0.0937 0.103042,0.149 0.08213,0.0296 0.103489,0.13911 0.182277,0.18096 0.0188,0.0448 0.04971,0.087 0.08719,0.11181 0.03445,0.05 0.07775,0.0918 0.111127,0.14208 0.0531,0.031 0.0642,0.10613 0.121206,0.12918 0.02315,0.051 0.08195,0.0749 0.09283,0.13335 0.02084,0.0329 0.07209,0.0229 0.07487,0.0699 0.03466,0.0343 0.06752,0.0659 0.08812,0.10996 0.03905,0.0167 0.06061,0.0453 0.06569,0.0877 0.01779,0.0447 0.07887,0.0285 0.08593,0.0817 0.05572,0.0358 0.06449,0.10867 0.126368,0.13621 0.01625,0.046 0.04196,0.0889 0.0891,0.10845 0.01546,0.0479 0.07759,0.0549 0.08247,0.11221 0.01845,0.0437 0.07272,0.0385 0.08385,0.0878 0.04162,0.036 0.0743,0.074 0.09088,0.12729 0.02663,0.0267 -0.01395,0.0637 -0.0025,0.10015 -0.02529,0.0414 -0.0399,0.087 -0.0491,0.13318 -0.05101,0.0439 -0.03428,0.11699 -0.077,0.16717 0.0096,0.0548 -0.06659,0.0604 -0.05605,0.11727 0.03284,0.0582 -0.05707,0.0589 -0.04531,0.11468 0.0068,0.0526 -0.04939,0.0901 -0.04459,0.14301 -0.05951,0.0186 -0.03692,0.0836 -0.0562,0.12476 -0.04631,0.0459 -0.04145,0.11677 -0.07521,0.17153 -8.22e-4,0.052 -0.06984,0.0796 -0.05026,0.13975 -0.01403,0.0354 -0.05365,0.0662 -0.04903,0.10671 -0.06013,0.0356 -0.01939,0.12559 -0.07761,0.16494 -0.01017,0.0487 -0.02569,0.0925 -0.05299,0.13563 0.0012,0.0471 -0.05616,0.0704 -0.04547,0.12367 -0.02596,0.0662 -0.06501,0.12944 -0.08079,0.20184 -0.01553,0.0543 -0.06457,0.09 -0.05843,0.15146 -0.03804,0.0393 -0.03562,0.0964 -0.06952,0.14037 -0.01409,0.0407 -0.01224,0.0822 -0.05208,0.1045 -0.0099,0.0639 -0.03589,0.12731 -0.06104,0.18581 -0.05007,0.0422 -0.03141,0.11458 -0.07509,0.16233 -0.0046,0.0594 -0.05643,0.10366 -0.05458,0.16408 -0.07113,0.0269 -0.0258,0.1153 -0.07808,0.15815 -0.0031,0.0488 -0.03561,0.0789 -0.05558,0.12098 0.0083,0.0582 -0.05997,0.0887 -0.05027,0.14809 -0.02351,0.0367 -0.03652,0.0836 -0.05099,0.11975 -0.0654,0.0233 -0.04994,0.13465 0.02766,0.11581 0.441097,-0.0538 0.879987,-0.12964 1.317513,-0.20754 0.04376,-0.005 0.08828,-0.0224 0.109971,-0.0588 0.06782,-0.0232 0.01681,-0.11184 0.07067,-0.15085 0.0031,-0.0461 0.03205,-0.0752 0.05238,-0.1141 0.01087,-0.0345 -0.01079,-0.0754 0.03586,-0.0887 0.02931,-0.0408 0.0036,-0.0987 0.04758,-0.13417 0.01147,-0.0632 0.0602,-0.11457 0.05864,-0.1809 0.04163,-0.0312 0.04091,-0.0823 0.05564,-0.12602 0.04064,-0.0325 0.01757,-0.0897 0.0576,-0.1191 0.01102,-0.0679 0.0555,-0.12379 0.06611,-0.19092 0.0041,-0.0436 0.04886,-0.0781 0.04902,-0.12288 0.04661,-0.0414 0.02802,-0.1132 0.07165,-0.157 0.0051,-0.0482 0.0199,-0.0879 0.04813,-0.12543 0.0066,-0.058 0.05498,-0.10436 0.05603,-0.16579 0.06174,-0.0318 0.02298,-0.12071 0.07775,-0.15944 0.0083,-0.0628 0.05953,-0.11184 0.05818,-0.17924 0.06129,-0.0303 0.02326,-0.11447 0.07244,-0.15431 -0.0043,-0.0382 0.05101,-0.0814 0.06479,-0.0272 0.02558,0.0308 0.07076,0.0182 0.08371,0.0639 0.05391,0.0405 0.06262,0.11629 0.12752,0.14496 0.01389,0.0453 0.03992,0.0856 0.08509,0.1048 0.01698,0.0599 0.08094,0.0854 0.103629,0.14192 0.04642,0.0168 0.05623,0.0592 0.07649,0.0977 0.03038,0.026 0.06559,0.0404 0.07589,0.0832 0.0548,0.0415 0.08135,0.10387 0.134867,0.14724 0.0092,0.0599 0.08384,0.067 0.09479,0.12494 0.04309,0.0367 0.07118,0.0814 0.108097,0.12306 0.04201,0.0336 0.05105,0.0949 0.106941,0.11505 0.01951,0.0626 0.0845,0.0913 0.111574,0.14947 0.05418,0.0391 0.07282,0.10542 0.126779,0.1457 0.01326,0.0726 0.09969,0.0868 0.130232,0.15275 0.03588,0.0691 0.103387,0.11047 0.138306,0.17878 0.05253,0.0756 0.138379,0.068 0.21788,0.0454 0.433107,-0.0735 0.872686,-0.13029 1.301764,-0.21409 0.03844,-0.083 -0.0891,-0.1202 -0.101035,-0.1971 -0.05456,-0.0386 -0.09334,-0.0974 -0.139309,-0.14898 -0.0381,-0.042 -0.08087,-0.07 -0.0982,-0.12709 -0.03269,-0.0266 -0.05947,-0.0458 -0.08449,-0.0826 -0.04247,-0.0414 -0.06606,-0.0966 -0.115831,-0.13237 -0.01313,-0.041 -0.04996,-0.0677 -0.07826,-0.0912 -0.0274,-0.0481 -0.08191,-0.0746 -0.09173,-0.13338 -0.01846,-0.0354 -0.07386,-0.018 -0.07433,-0.0673 -0.04568,-0.0469 -0.073,-0.11269 -0.135043,-0.13912 -0.01202,-0.045 -0.03034,-0.0959 -0.08414,-0.10115 -0.01433,-0.0588 -0.08213,-0.0793 -0.09629,-0.13818 -0.02895,-0.0285 -0.07025,-0.0408 -0.07359,-0.088 -0.02526,-0.0414 -0.07654,-0.0491 -0.09194,-0.0986 -0.05459,-0.0345 -0.0621,-0.10724 -0.124983,-0.13214 -0.01827,-0.0614 -0.08137,-0.0894 -0.111979,-0.14278 -0.06121,-0.0249 -0.0468,-0.12059 -0.122556,-0.12382 -0.01741,-0.0622 -0.08369,-0.0891 -0.109185,-0.1468 -0.05465,-0.0351 -0.06233,-0.10958 -0.128149,-0.13199 -0.02933,-0.0525 -0.07821,-0.0918 -0.101122,-0.14772 -0.06025,-0.0158 -0.06642,-0.0932 -0.12369,-0.12094 -0.02052,-0.0526 -0.08128,-0.0665 -0.09412,-0.12456 -0.08061,-0.0589 -0.11802,-0.1635 -0.203797,-0.2214 -0.04526,-0.0756 -0.01834,-0.16017 0.02453,-0.2273 0.01787,-0.0598 0.04073,-0.11653 0.07944,-0.16265 0.01208,-0.10787 0.07913,-0.20498 0.112534,-0.30555 0.04187,-0.0386 0.01969,-0.1065 0.06406,-0.14463 0.0034,-0.039 0.02032,-0.0584 0.04757,-0.0821 0.0064,-0.0524 0.01179,-0.10313 0.04566,-0.14783 0.02992,-0.067 0.04028,-0.14271 0.09235,-0.19548 5.7e-5,-0.0652 0.04793,-0.11586 0.05723,-0.17896 0.0356,-0.0271 0.02524,-0.0783 0.04382,-0.10869 0.06635,-0.0288 0.02133,-0.11423 0.07353,-0.15595 0.01083,-0.0329 0.0066,-0.0656 0.04389,-0.0812 0.03837,-0.0338 -0.01759,-0.10054 0.04043,-0.11685 0.0319,-0.0384 0.01516,-0.0946 0.05357,-0.13207 0.0053,-0.0377 0.01491,-0.0614 0.04774,-0.0811 0.02675,-0.0427 -0.0093,-0.1018 0.04269,-0.13339 0.01029,-0.0529 0.03919,-0.0961 0.05667,-0.14713 -0.0013,-0.0524 0.06743,-0.0831 0.04698,-0.14339 0.02457,-0.0324 0.05022,-0.0645 0.05236,-0.10735 0.04243,-0.0456 0.02424,-0.10854 0.06537,-0.15026 0.01271,-0.0639 0.05718,-0.11881 0.07082,-0.1783 0.04697,-0.0468 0.02805,-0.12318 0.07583,-0.17151 0.0315,-0.0624 0.03282,-0.1374 0.08473,-0.18482 0.01046,-0.0572 0.0166,-0.11225 0.05428,-0.15913 0.06796,-0.11907 -0.08953,-0.0811 -0.155671,-0.0656 -0.427358,0.0743 -0.859784,0.12434 -1.283693,0.21598 -0.04666,0.0118 -0.04362,0.0636 -0.07786,0.088 -0.01477,0.0494 -0.01265,0.0983 -0.04638,0.1395 -0.008,0.0636 -0.05162,0.10926 -0.06055,0.17127 -0.06481,0.0224 -0.01753,0.10506 -0.06412,0.14428 -0.02236,0.0488 -0.02095,0.10365 -0.05986,0.1425 -0.0061,0.0599 -0.05523,0.1074 -0.05743,0.17006 -0.06501,0.0248 -0.01537,0.11066 -0.06807,0.14945 -0.01117,0.0373 -0.01105,0.0737 -0.04522,0.0991 -0.02874,0.0312 0.01163,0.0871 -0.03945,0.0999 -0.03643,0.0402 -0.0062,0.10313 -0.05233,0.14056 -0.003,0.0455 -0.03082,0.0745 -0.05178,0.11253 -0.01498,0.0305 0.01394,0.075 -0.03195,0.0855 -0.03635,0.0404 -0.0065,0.10334 -0.0525,0.14108 -0.003,0.0619 -0.05374,0.10638 -0.05539,0.16825 -0.0084,0.0292 -0.06137,0.042 -0.04879,0.0852 0.02105,0.0582 -0.0576,0.084 -0.04451,0.14274 -0.02666,0.0371 -0.03932,0.0827 -0.04759,0.12424 -0.05154,0.005 -0.02815,0.0931 -0.08501,0.0656 -0.03672,-0.041 -0.08464,-0.0785 -0.107557,-0.13196 -0.04073,-0.0224 -0.06268,-0.0545 -0.08311,-0.0947 -0.05302,-0.0378 -0.07685,-0.0987 -0.127538,-0.13969 -0.01043,-0.0651 -0.08417,-0.0729 -0.106999,-0.13231 -0.03991,-0.0736 -0.116922,-0.11192 -0.147815,-0.19001 -0.05848,-0.0311 -0.06212,-0.11008 -0.125155,-0.13628 -0.06367,-0.0536 -0.09043,-0.13903 -0.157395,-0.18554 -0.009,-0.0425 -0.04782,-0.0671 -0.07476,-0.0908 -0.02622,-0.048 -0.08089,-0.0729 -0.09207,-0.13016 -0.0322,-0.0354 -0.07864,-0.0543 -0.09258,-0.10569 -0.02232,-0.0298 -0.05878,-0.0342 -0.06885,-0.0737 -0.06119,-0.0298 -0.05822,-0.11169 -0.122826,-0.13627 -0.02428,-0.0426 -0.04962,-0.0858 -0.09272,-0.11425 -0.02292,-0.0528 -0.07963,-0.0794 -0.10176,-0.13327 -0.04637,-0.0602 -0.114249,-0.0803 -0.184367,-0.0642 z m -7.2045805,1.15041 c -0.064349,0.01 -0.1317918,0.0308 -0.1942252,0.0338 -0.56048,0.0894 -1.1209801,0.17876 -1.681465,0.26814 l 1.86e-5,1.2e-4 c -0.3593419,0.0641 -0.7244725,0.10339 -1.0790246,0.19082 -0.1119268,0.078 -0.2663685,0.0573 -0.3736893,0.13863 -0.064321,0.0435 -0.1501842,0.0576 -0.205323,0.11866 -0.074164,0.0156 -0.1117828,0.0828 -0.1753989,0.11803 -0.034534,0.0527 -0.1140258,0.0509 -0.1301012,0.11546 -0.068968,0.0757 -0.1554413,0.13046 -0.2059365,0.22315 -0.084503,0.10755 -0.1562879,0.2235 -0.2119038,0.34785 -0.037539,0.0274 -0.027817,0.0824 -0.061038,0.11671 -0.01644,0.0404 -0.00574,0.087 -0.049456,0.10788 -0.025775,0.0415 0.022061,0.1093 -0.03826,0.12815 -0.028574,0.0587 0.017834,0.13126 -0.031956,0.18534 -0.027226,0.0893 0.026969,0.19062 -0.028161,0.27139 0.00495,0.20427 0.05131,0.40719 0.088727,0.60785 0.0087,0.0581 0.075252,0.0784 0.074847,0.14123 0.00984,0.0757 0.042192,0.14449 0.094863,0.1976 0.01517,0.0494 0.016722,0.12277 0.080469,0.12808 0.014301,0.0474 0.024955,0.10739 0.080753,0.11603 0.023063,0.0683 0.088063,0.10314 0.1250224,0.16081 0.059992,0.0398 0.1042084,0.0963 0.1441586,0.15248 0.041795,0.003 0.050098,0.0347 0.077758,0.0581 0.044506,-0.002 0.050589,0.0618 0.098174,0.0601 0.099747,0.0732 0.2132545,0.12245 0.3230492,0.17776 0.0659,0.0154 0.116047,0.0593 0.1853868,0.0606 0.05526,0.042 0.1311045,0.0226 0.1861327,0.0623 0.072376,0.007 0.1429671,0.0125 0.2120851,0.0321 0.1240599,-0.005 0.2479239,-0.008 0.3715698,-0.003 0.5409185,-0.0558 1.0826233,-0.16839 1.618761,-0.22029 0.037842,0.0138 0.075455,0.0336 0.1186887,0.0312 0.07128,0.0375 0.1500619,0.0709 0.1967509,0.13957 0.053913,-0.003 0.052664,0.0671 0.1010121,0.081 0.034529,0.0874 0.1075946,0.15488 0.1110562,0.25456 0.020089,0.0987 0.034708,0.20126 -0.00192,0.29685 0.01012,0.0643 -0.044611,0.10706 -0.052818,0.16442 -0.056513,0.0285 -0.051616,0.11625 -0.1116112,0.14842 -0.035445,0.0447 -0.077825,0.0752 -0.1269652,0.1021 -0.069202,0.057 -0.1760345,0.0447 -0.2581847,0.0707 -0.9278051,0.15814 -1.8576808,0.30368 -2.7864501,0.45602 -0.05859,0.0667 0.015672,0.18176 0.011237,0.26718 0.057527,0.33299 0.098459,0.67248 0.1663209,1.00144 0.09225,0.0249 0.205084,-0.0269 0.3049808,-0.0316 0.8681814,-0.14385 1.7404258,-0.26538 2.6050666,-0.4293 0.142065,-0.0682 0.3160943,-0.0576 0.4422969,-0.16022 0.071184,-0.012 0.1227624,-0.0619 0.1794657,-0.0994 0.067785,-0.0209 0.1110663,-0.0825 0.1748307,-0.11085 0.039731,-0.0503 0.098246,-0.0763 0.1355669,-0.12884 0.051773,-0.0125 0.056191,-0.0799 0.1088004,-0.0908 0.024731,-0.026 0.011048,-0.0656 0.052115,-0.0812 0.053502,-0.0544 0.090639,-0.12737 0.1324643,-0.18595 0.045919,-0.0206 0.029956,-0.077 0.076403,-0.0949 0.021096,-0.0404 0.02029,-0.0876 0.05349,-0.12408 0.00414,-0.0571 0.067995,-0.0915 0.055589,-0.15395 0.030555,-0.0465 0.041433,-0.0989 0.049111,-0.15231 0.044788,-0.0439 0.024647,-0.11029 0.037775,-0.16115 0.050475,-0.0811 0.00482,-0.18629 0.045479,-0.27267 -0.00838,-0.23977 -0.061438,-0.47695 -0.1032695,-0.71288 -0.012446,-0.0715 -0.079911,-0.11339 -0.085986,-0.18957 -0.012387,-0.071 -0.081505,-0.10603 -0.090076,-0.1768 -0.024204,-0.0505 -0.079658,-0.0751 -0.092114,-0.13273 -0.05646,-0.045 -0.063895,-0.13071 -0.1368788,-0.15524 -0.027077,-0.0514 -0.076939,-0.0868 -0.1055583,-0.13633 -0.062421,-0.005 -0.090053,-0.0731 -0.1447837,-0.10031 -0.082382,-0.067 -0.1787096,-0.12459 -0.26424,-0.18088 -0.045163,-0.0398 -0.1096343,-0.0417 -0.1525742,-0.0816 -0.062874,0.003 -0.1092344,-0.0562 -0.17452,-0.0471 -0.046838,-0.0415 -0.108618,-0.036 -0.1650624,-0.0453 -0.069673,-0.0616 -0.1671134,-0.003 -0.2407649,-0.056 -0.1320172,-0.0143 -0.2642221,0.0336 -0.3976386,0.0161 -0.5390476,0.0447 -1.0730971,0.16678 -1.608613,0.21708 -0.046994,-0.0247 -0.1035099,-0.0319 -0.1536897,-0.0501 -0.027606,-0.0356 -0.072826,-0.03 -0.094824,-0.0698 -0.051539,-0.006 -0.060725,-0.0657 -0.1120544,-0.0779 -0.025857,-0.0612 -0.0981,-0.0956 -0.095528,-0.17103 -0.017045,-0.0549 -0.083641,-0.0763 -0.077327,-0.14219 -0.01953,-0.0745 -0.021154,-0.16042 0.01022,-0.23482 -4.688e-4,-0.0593 -0.00809,-0.11959 0.032817,-0.16919 -0.00824,-0.0545 0.06824,-0.065 0.058063,-0.12076 0.057686,-0.003 0.038041,-0.0715 0.082231,-0.0891 0.021965,-0.0455 0.062463,-0.0646 0.1092076,-0.0751 0.036389,-0.0107 0.0099,-0.0686 0.058021,-0.0581 1.0373796,-0.17826 2.0795486,-0.33729 3.1192857,-0.50503 0.058772,-0.0665 -0.015698,-0.18178 -0.011237,-0.26718 -0.058332,-0.33832 -0.1002289,-0.68317 -0.1688746,-1.01746 -0.034594,-0.009 -0.072008,-0.008 -0.1106162,-0.003 z m 5.6242025,-0.89691 c -0.06435,0.009 -0.131792,0.0309 -0.194226,0.0338 l -4.1409857,0.66038 -0.01295,0.009 -0.00844,0.005 c 0.03727,0.34669 0.1081375,0.69412 0.1583035,1.04107 l 0.8525472,5.34601 c 0.0665,0.0588 0.181912,-0.0156 0.267317,-0.0111 0.317713,-0.0551 0.641868,-0.0936 0.955557,-0.159 0.02486,-0.0923 -0.02707,-0.20507 -0.03172,-0.30497 -0.113855,-0.74606 -0.249095,-1.49007 -0.344064,-2.23818 0.06862,-0.0371 0.175134,-0.0379 0.257443,-0.0584 0.552133,-0.0936 1.105659,-0.17845 1.658523,-0.26755 0.05877,-0.0665 -0.01572,-0.1819 -0.01126,-0.2673 -0.05755,-0.33315 -0.09837,-0.67271 -0.166258,-1.00183 -0.09223,-0.025 -0.205162,0.0266 -0.305057,0.0311 -0.5441,0.0836 -1.087443,0.17762 -1.632917,0.24754 -0.0469,-0.0592 -0.03289,-0.18199 -0.05749,-0.26445 l -0.158764,-0.99524 c 1.068403,-0.17308 2.136862,-0.34605 3.205268,-0.51912 0.05865,-0.0666 -0.01582,-0.18187 -0.01138,-0.26727 -0.05832,-0.33827 -0.10018,-0.68287 -0.168817,-1.01711 -0.0346,-0.009 -0.07203,-0.008 -0.110635,-0.003 z"
           style="opacity:1;vector-effect:none;fill:#000000;fill-opacity:1;stroke:none;stroke-width:0.79374999;stroke-linecap:round;stroke-linejoin:round;stroke-miterlimit:4;stroke-dasharray:none;stroke-dashoffset:0;stroke-opacity:1" />
      </g>
    </g>
  </g>
</svg>
