<?xml version="1.0" encoding="UTF-8" standalone="no"?>
<svg
   xmlns:dc="http://purl.org/dc/elements/1.1/"
   xmlns:cc="http://creativecommons.org/ns#"
   xmlns:rdf="http://www.w3.org/1999/02/22-rdf-syntax-ns#"
   xmlns:svg="http://www.w3.org/2000/svg"
   xmlns="http://www.w3.org/2000/svg"
   id="svg8"
   version="1.1"
   viewBox="0 0 21.695833 21.695834"
   height="82"
   width="82">
  <defs
     id="defs2" />
  <metadata
     id="metadata5">
    <rdf:RDF>
      <cc:Work
         rdf:about="">
        <dc:format>image/svg+xml</dc:format>
        <dc:type
           rdf:resource="http://purl.org/dc/dcmitype/StillImage" />
        <dc:title></dc:title>
      </cc:Work>
    </rdf:RDF>
  </metadata>
  <g
     transform="translate(0,-275.30415)"
     id="layer1">
    <path
       id="path3687"
       d="m 9.3079925,276.56002 c -0.06295,-0.0232 -0.2590582,0.0467 -0.3804712,0.13538 -0.121413,0.0886 -0.1893268,0.256 -0.2662178,0.39826 -0.076891,0.14227 -0.123849,0.33806 -0.190616,0.45358 -0.066767,0.11552 -0.1045531,0.0681 -0.1827771,0.24372 -0.078224,0.17551 -0.085739,0.61648 -0.1453936,0.82282 -0.059655,0.20633 -0.1222528,0.24757 -0.169363,0.41778 -0.04711,0.17021 -0.045612,0.4333 -0.092003,0.60246 -0.046391,0.16915 -0.1221503,0.25489 -0.164713,0.41167 -0.042563,0.15679 -0.031721,0.37254 -0.077643,0.52707 -0.045922,0.15454 -0.1184785,0.26337 -0.1804788,0.3974 -0.062,0.13403 -0.1388932,0.26758 -0.1915999,0.40675 -0.052707,0.13917 -0.037678,0.29678 -0.1235544,0.42676 -0.085877,0.12998 -0.2354639,0.28623 -0.3749098,0.33115 -0.1394459,0.0449 -0.2039442,0.0205 -0.3259734,-0.0119 -0.1220292,-0.0324 -0.2560301,-0.0992 -0.3611593,-0.19945 -0.1051292,-0.10025 -0.1501509,-0.19688 -0.2190005,-0.39595 -0.06885,-0.19906 -0.063766,-0.59672 -0.1220377,-0.79992 -0.058272,-0.20321 -0.1141787,-0.27761 -0.1794891,-0.42085 -0.06531,-0.14325 -0.1248375,-0.31053 -0.2129126,-0.43829 -0.088075,-0.12775 -0.1912923,-0.23806 -0.3003927,-0.32625 -0.1091004,-0.0881 -0.1909742,-0.20796 -0.3369943,-0.20444 -0.1460201,0.004 -0.2029045,0.13099 -0.3185923,0.22068 -0.1156878,0.0897 -0.2762562,0.18835 -0.3689443,0.32045 -0.092688,0.1321 -0.1009072,0.30963 -0.158639,0.45747 -0.057732,0.14783 -0.1222231,0.30415 -0.1867582,0.42933 -0.064535,0.12518 -0.1298852,0.16435 -0.1933082,0.32254 -0.063423,0.15818 -0.07507,0.43002 -0.1364962,0.62899 -0.061426,0.19896 -0.1268368,0.38109 -0.2269883,0.563 -0.1001515,0.18191 -0.2651262,0.39183 -0.371472,0.5233 -0.1063458,0.13146 -0.1623474,0.18814 -0.2485244,0.27171 -0.086177,0.0836 -0.1677356,0.16929 -0.2661171,0.22977 -0.098381,0.0605 -0.2527568,0.0539 -0.3100993,0.13287 -0.057343,0.079 -0.042283,0.19359 0.024165,0.27316 0.066448,0.0795 0.2166765,0.0778 0.3352753,0.14658 0.1185988,0.0688 0.2596948,0.17368 0.3598446,0.27195 0.1001498,0.0983 0.1546259,0.18655 0.2391213,0.31117 0.084495,0.12462 0.1765374,0.27122 0.259545,0.43827 0.083008,0.16705 0.1646264,0.36272 0.2290105,0.56449 0.064384,0.20176 0.096858,0.48086 0.1514602,0.64489 0.054602,0.16403 0.089215,0.21851 0.1484113,0.34177 0.059197,0.12326 0.1390471,0.2513 0.2092091,0.39677 0.070162,0.14546 0.1142722,0.34942 0.2087885,0.47637 0.094516,0.12693 0.2182211,0.19398 0.3182893,0.28369 0.1000682,0.0897 0.1343028,0.24602 0.2822355,0.25449 0.1479327,0.009 0.22842,-0.15345 0.328661,-0.21653 0.100241,-0.0631 0.1902364,-0.0913 0.2712737,-0.16297 0.081037,-0.0718 0.123061,-0.10226 0.1969594,-0.26484 0.073898,-0.16257 0.085032,-0.51594 0.1422593,-0.71902 0.057227,-0.20308 0.137575,-0.35166 0.1838468,-0.49983 0.046272,-0.14818 0.048266,-0.25813 0.099864,-0.38752 0.051598,-0.12939 0.1094549,-0.28558 0.2108108,-0.38457 0.1013559,-0.099 0.218514,-0.17729 0.3521604,-0.20263 0.1336464,-0.0254 0.2628614,-0.01 0.3755162,0.0441 0.1126548,0.0535 0.1588638,0.1421 0.2325491,0.26077 0.073685,0.11868 0.1047189,0.34938 0.1745127,0.45309 0.069794,0.10371 0.1091004,0.0466 0.1819956,0.17871 0.072895,0.13219 0.05999,0.46325 0.1090955,0.62736 0.049106,0.16411 0.1050356,0.19442 0.1538975,0.35828 0.048862,0.16386 0.059847,0.45851 0.1075689,0.62583 0.047722,0.16731 0.1034452,0.20684 0.1524016,0.37867 0.048956,0.17181 0.063332,0.47645 0.1118954,0.65321 0.048563,0.17677 0.096854,0.25555 0.1555227,0.40789 0.058669,0.15235 0.1294139,0.32446 0.19684,0.50612 0.067426,0.18165 0.1114852,0.42289 0.2064635,0.58396 0.094978,0.16107 0.1591821,0.2955 0.3269845,0.38032 0.1678024,0.0849 0.4222899,0.12744 0.5974487,0.0885 0.1751588,-0.0388 0.246287,-0.14802 0.344274,-0.25366 0.097987,-0.10564 0.1487901,-0.27447 0.2228661,-0.37464 0.07408,-0.10016 0.135056,-0.0854 0.206238,-0.2296 0.07118,-0.14423 0.04773,-0.42894 0.09828,-0.64124 0.05055,-0.21231 0.13149,-0.49213 0.204686,-0.63024 0.0732,-0.13811 0.102968,-0.10843 0.15981,-0.21077 0.05684,-0.10234 0.06236,-0.27597 0.151258,-0.40698 0.08889,-0.13102 0.253464,-0.2917 0.380067,-0.36122 0.126603,-0.0696 0.181462,-0.0808 0.304235,-0.0871 0.122773,-0.007 0.291437,0.0298 0.400692,0.0693 0.109255,0.0395 0.162918,0.0854 0.24721,0.14815 0.08429,0.0628 0.172893,0.14707 0.249237,0.23093 0.07634,0.0839 0.125684,0.14629 0.205852,0.27134 0.08017,0.12505 0.161965,0.35308 0.256511,0.48322 0.09455,0.13014 0.161385,0.20851 0.285126,0.30061 0.123741,0.0921 0.264321,0.24882 0.453703,0.2389 0.189382,-0.01 0.30905,-0.20294 0.417749,-0.29449 0.108699,-0.0915 0.187772,-0.15498 0.242964,-0.24563 0.05519,-0.0907 0.03951,-0.1593 0.08392,-0.28565 0.04441,-0.12635 0.129379,-0.34137 0.192849,-0.46989 0.06347,-0.12853 0.110464,-0.13941 0.175994,-0.3031 0.06553,-0.16371 0.102784,-0.49004 0.15874,-0.68434 0.05596,-0.19431 0.09518,-0.35827 0.166326,-0.48221 0.07115,-0.12394 0.15011,-0.17689 0.220217,-0.26398 0.07011,-0.0871 0.116422,-0.19123 0.200594,-0.25843 0.08417,-0.0673 0.144021,-0.13274 0.280979,-0.14178 0.136958,-0.009 0.327012,0.0864 0.440934,0.14552 0.113922,0.0591 0.163141,0.11206 0.244278,0.18765 0.08114,0.0756 0.15455,0.16603 0.234369,0.26722 0.07982,0.1012 0.154448,0.2386 0.240334,0.34084 0.08589,0.10224 0.153406,0.17607 0.269454,0.27276 0.116048,0.0967 0.242294,0.29171 0.433326,0.29861 0.191032,0.007 0.320715,-0.174 0.437318,-0.24667 0.116603,-0.0727 0.193251,-0.11082 0.267331,-0.18384 0.07408,-0.073 0.109726,-0.13161 0.168446,-0.24822 0.05872,-0.11661 0.09162,-0.28956 0.155404,-0.4545 0.06379,-0.16495 0.154573,-0.40354 0.23083,-0.53395 0.07626,-0.13041 0.126096,-0.1523 0.19148,-0.25513 0.06538,-0.10283 0.141301,-0.24613 0.191822,-0.36323 0.05052,-0.11709 0.03594,-0.2119 0.114151,-0.33715 0.07821,-0.12526 0.2697,-0.28651 0.377235,-0.39136 0.107535,-0.10486 0.154238,-0.16476 0.262174,-0.24053 0.107936,-0.0758 0.288851,-0.11921 0.38492,-0.20614 0.09607,-0.0869 0.226733,-0.19576 0.179669,-0.29369 -0.04706,-0.0979 -0.259618,-0.0837 -0.366214,-0.1374 -0.106596,-0.0537 -0.182972,-0.10621 -0.271476,-0.17823 -0.0885,-0.0721 -0.181027,-0.16361 -0.251355,-0.25477 -0.07033,-0.0912 -0.07909,-0.15531 -0.168043,-0.2888 -0.08895,-0.13347 -0.27431,-0.32663 -0.381481,-0.50513 -0.107171,-0.17849 -0.183811,-0.38554 -0.257119,-0.56202 -0.07331,-0.17648 -0.136104,-0.36491 -0.185433,-0.49581 -0.04933,-0.13091 -0.04883,-0.20057 -0.110005,-0.28977 -0.06118,-0.0892 -0.162199,-0.14592 -0.249536,-0.23562 -0.08734,-0.0897 -0.112752,-0.23501 -0.271172,-0.3036 -0.15842,-0.0686 -0.446628,-0.0691 -0.606954,-0.0342 -0.160326,0.0349 -0.201697,0.0973 -0.313132,0.17596 -0.111435,0.0787 -0.25775,0.19598 -0.340432,0.30105 -0.08268,0.10508 -0.07785,0.20811 -0.159347,0.31593 -0.08149,0.10781 -0.197603,0.23534 -0.335882,0.31876 -0.138279,0.0834 -0.327946,0.16561 -0.469446,0.17236 -0.1415,0.007 -0.209283,-0.0269 -0.30747,-0.0782 -0.09819,-0.0514 -0.171975,-0.13793 -0.245795,-0.22949 -0.07382,-0.0915 -0.119993,-0.16345 -0.184826,-0.31877 -0.06483,-0.15532 -0.107831,-0.46196 -0.163492,-0.61663 -0.05566,-0.15467 -0.08493,-0.17571 -0.143948,-0.31432 -0.05902,-0.13862 -0.142339,-0.33492 -0.204269,-0.51849 -0.06193,-0.18355 -0.102687,-0.43236 -0.1642,-0.58258 -0.06151,-0.15022 -0.09942,-0.24363 -0.174918,-0.32153 -0.0755,-0.0779 -0.08546,-0.21376 -0.198529,-0.29581 -0.113066,-0.0821 -0.241084,-0.20819 -0.463014,-0.2068 -0.22193,0.002 -0.303023,0.24547 -0.445694,0.38162 -0.142671,0.13614 -0.32012,0.29447 -0.407669,0.43493 -0.08755,0.14045 -0.07387,0.26666 -0.137305,0.38602 -0.06343,0.11936 -0.148749,0.24373 -0.236391,0.32653 -0.08764,0.0828 -0.153969,0.12799 -0.261264,0.17455 -0.107295,0.0465 -0.232045,0.0815 -0.373292,0.0938 -0.141247,0.0123 -0.337043,0.007 -0.456707,-0.0316 -0.119664,-0.0383 -0.158516,-0.0805 -0.242053,-0.1586 -0.08354,-0.078 -0.15941,-0.18278 -0.228909,-0.31534 -0.0695,-0.13258 -0.114873,-0.34194 -0.163594,-0.48016 -0.04872,-0.13822 -0.0711,-0.21235 -0.127295,-0.34945 -0.05619,-0.13708 -0.150136,-0.28465 -0.215158,-0.47151 -0.06502,-0.18685 -0.07043,-0.46137 -0.158235,-0.64954 -0.08781,-0.18817 -0.229523,-0.36133 -0.3376012,-0.47256 -0.108078,-0.11123 -0.1596823,-0.16572 -0.2673305,-0.20809 -0.1076482,-0.0424 -0.2974277,-0.0134 -0.3381061,-0.0428 -0.040678,-0.0294 0.062946,0.0232 -3.7e-6,-10e-6 z"
       style="opacity:1;vector-effect:none;fill:#000000;fill-opacity:1;stroke:none;stroke-width:0.79401457;stroke-linecap:round;stroke-linejoin:round;stroke-miterlimit:4;stroke-dasharray:none;stroke-dashoffset:0;stroke-opacity:1" />
  </g>
</svg>
