<?xml version="1.0" encoding="UTF-8" standalone="no"?>
<!-- Created with Inkscape (http://www.inkscape.org/) -->

<svg
   xmlns:dc="http://purl.org/dc/elements/1.1/"
   xmlns:cc="http://creativecommons.org/ns#"
   xmlns:rdf="http://www.w3.org/1999/02/22-rdf-syntax-ns#"
   xmlns:svg="http://www.w3.org/2000/svg"
   xmlns="http://www.w3.org/2000/svg"
   xmlns:sodipodi="http://sodipodi.sourceforge.net/DTD/sodipodi-0.dtd"
   xmlns:inkscape="http://www.inkscape.org/namespaces/inkscape"
   width="82"
   height="82"
   viewBox="0 0 21.695833 21.695834"
   version="1.1"
   id="svg8"
   inkscape:version="0.92.5 (2060ec1f9f, 2020-04-08)"
   sodipodi:docname="perc-snare.svg">
  <defs
     id="defs2" />
  <sodipodi:namedview
     id="base"
     pagecolor="#ffffff"
     bordercolor="#666666"
     borderopacity="1.0"
     inkscape:pageopacity="0.0"
     inkscape:pageshadow="2"
     inkscape:zoom="3.959798"
     inkscape:cx="19.277411"
     inkscape:cy="14.675552"
     inkscape:document-units="mm"
     inkscape:current-layer="g1072"
     showgrid="false"
     units="px"
     inkscape:window-width="2560"
     inkscape:window-height="1364"
     inkscape:window-x="2560"
     inkscape:window-y="40"
     inkscape:window-maximized="1"
     showguides="false"
     inkscape:snap-global="false"
     inkscape:lockguides="false" />
  <metadata
     id="metadata5">
    <rdf:RDF>
      <cc:Work
         rdf:about="">
        <dc:format>image/svg+xml</dc:format>
        <dc:type
           rdf:resource="http://purl.org/dc/dcmitype/StillImage" />
        <dc:title />
      </cc:Work>
    </rdf:RDF>
  </metadata>
  <g
     inkscape:label="Layer 1"
     inkscape:groupmode="layer"
     id="layer1"
     transform="translate(0,-275.30415)">
    <g
       id="g1087"
       transform="translate(-0.52248551)">
      <path
         d="m 11.452724,280.6179 c -1.5426641,0 -2.9392723,0.20461 -3.9842533,0.55294 -0.52249,0.17416 -0.958496,0.38224 -1.289844,0.64337 -0.331347,0.26113 -0.579809,0.60756 -0.579809,1.01958 0,0.0546 0.0051,0.10792 0.01344,0.16019 l 0.01447,5.12241 c 0,0 1.222502,1.60521 5.8590743,1.45521 4.636572,-0.15001 5.80688,-1.71979 5.80688,-1.71979 l 0.0057,-4.9064 c 0.0041,-0.0368 0.0083,-0.0737 0.0083,-0.11162 0,-0.41202 -0.248463,-0.75845 -0.57981,-1.01958 -0.331347,-0.26113 -0.767353,-0.46921 -1.289844,-0.64337 -1.04498,-0.34833 -2.441588,-0.55294 -3.984251,-0.55294 z m 0,0.79375 c 1.471167,0 2.80303,0.2026 3.733104,0.51263 0.465038,0.15501 0.828615,0.33903 1.049549,0.51315 0.220934,0.17411 0.277502,0.30607 0.277502,0.39636 0,0.0903 -0.05657,0.22224 -0.277502,0.39635 -0.220934,0.17412 -0.584511,0.35814 -1.049549,0.51315 -0.930074,0.31003 -2.261937,0.51263 -3.733104,0.51263 -1.4711681,0 -2.8030313,-0.2026 -3.7331053,-0.51263 -0.465038,-0.15501 -0.828615,-0.33903 -1.049549,-0.51315 -0.220934,-0.17411 -0.277502,-0.30607 -0.277502,-0.39635 0,-0.0903 0.05657,-0.22225 0.277502,-0.39636 0.220934,-0.17412 0.584511,-0.35814 1.049549,-0.51315 0.930074,-0.31003 2.2619372,-0.51263 3.7331053,-0.51263 z m -4.1723553,3.14658 c 0.285029,0 0.514697,0.28329 0.514697,0.63562 v 1.98875 c 0,0.35233 -0.229668,0.63613 -0.514697,0.63613 -0.28503,0 -0.514181,-0.2838 -0.514181,-0.63613 v -1.98875 c 0,-0.35233 0.229151,-0.63562 0.514181,-0.63562 z m 8.4666663,0 c 0.285029,0 0.514697,0.28329 0.514697,0.63562 v 1.98875 c 0,0.35233 -0.229668,0.63613 -0.514697,0.63613 -0.28503,0 -0.514181,-0.2838 -0.514181,-0.63613 v -1.98875 c 0,-0.35233 0.229151,-0.63562 0.514181,-0.63562 z m -2.71353,0.81855 c 0.28503,0 0.514697,0.2833 0.514697,0.63562 v 1.98875 c 0,0.35233 -0.229667,0.63614 -0.514697,0.63614 -0.28503,0 -0.514697,-0.28381 -0.514697,-0.63614 v -1.98875 c 0,-0.35232 0.229667,-0.63562 0.514697,-0.63562 z m -3.0401231,0.0698 c 0.2850291,0 0.5146971,0.2838 0.5146971,0.63613 v 1.98875 c 0,0.35233 -0.229668,0.63614 -0.5146971,0.63614 -0.2850302,0 -0.5146972,-0.28381 -0.5146982,-0.63614 v -1.98875 c 0,-0.35233 0.229668,-0.63613 0.5146982,-0.63613 z"
         style="color:#000000;fill:#000000;stroke-width:0.26458332"
         id="path258685"
         inkscape:connector-curvature="0"
         sodipodi:nodetypes="sccscccccsscsssccsccsccsccsssssssssssssssssssssssssscss" />
      <g
         transform="rotate(9.0608628,25.71236,279.87825)"
         id="g1072">
        <path
           style="fill:none;stroke:#000000;stroke-width:0.79374999;stroke-linecap:round;stroke-linejoin:round;stroke-miterlimit:4;stroke-dasharray:none;stroke-opacity:1"
           d="m 20.129761,281.18665 -9.044798,0.21863"
           id="path1066"
           inkscape:connector-curvature="0" />
        <circle
           style="opacity:1;vector-effect:none;fill:#000000;fill-opacity:1;stroke:none;stroke-width:0.79374999;stroke-linecap:round;stroke-linejoin:round;stroke-miterlimit:4;stroke-dasharray:none;stroke-dashoffset:0;stroke-opacity:1"
           id="path1068"
           cx="-69.009903"
           cy="272.99026"
           r="0.98555636"
           transform="rotate(-16.384685)" />
      </g>
      <g
         id="g1078"
         transform="rotate(-165.14529,11.140831,281.55386)">
        <path
           inkscape:connector-curvature="0"
           id="path1074"
           d="m 20.512936,282.63424 -8.739155,-2.34165"
           style="fill:none;stroke:#000000;stroke-width:0.79374999;stroke-linecap:round;stroke-linejoin:round;stroke-miterlimit:4;stroke-dasharray:none;stroke-opacity:1" />
        <circle
           r="0.98555636"
           cy="280.17871"
           cx="11.509294"
           id="circle1076"
           style="opacity:1;vector-effect:none;fill:#000000;fill-opacity:1;stroke:none;stroke-width:0.79374999;stroke-linecap:round;stroke-linejoin:round;stroke-miterlimit:4;stroke-dasharray:none;stroke-dashoffset:0;stroke-opacity:1" />
      </g>
    </g>
  </g>
</svg>
