<?xml version="1.0" encoding="UTF-8" standalone="no"?>
<!-- Created with Inkscape (http://www.inkscape.org/) -->

<svg
   xmlns:dc="http://purl.org/dc/elements/1.1/"
   xmlns:cc="http://creativecommons.org/ns#"
   xmlns:rdf="http://www.w3.org/1999/02/22-rdf-syntax-ns#"
   xmlns:svg="http://www.w3.org/2000/svg"
   xmlns="http://www.w3.org/2000/svg"
   xmlns:sodipodi="http://sodipodi.sourceforge.net/DTD/sodipodi-0.dtd"
   xmlns:inkscape="http://www.inkscape.org/namespaces/inkscape"
   width="82"
   height="82"
   viewBox="0 0 21.695833 21.695834"
   version="1.1"
   id="svg8"
   inkscape:version="0.92.5 (2060ec1f9f, 2020-04-08)"
   sodipodi:docname="perc-synth.svg">
  <defs
     id="defs2" />
  <sodipodi:namedview
     id="base"
     pagecolor="#ffffff"
     bordercolor="#666666"
     borderopacity="1.0"
     inkscape:pageopacity="0.0"
     inkscape:pageshadow="2"
     inkscape:zoom="8"
     inkscape:cx="50.764661"
     inkscape:cy="39.208047"
     inkscape:document-units="mm"
     inkscape:current-layer="layer1"
     showgrid="false"
     units="px"
     inkscape:window-width="2560"
     inkscape:window-height="1364"
     inkscape:window-x="2560"
     inkscape:window-y="40"
     inkscape:window-maximized="1"
     showguides="true" />
  <metadata
     id="metadata5">
    <rdf:RDF>
      <cc:Work
         rdf:about="">
        <dc:format>image/svg+xml</dc:format>
        <dc:type
           rdf:resource="http://purl.org/dc/dcmitype/StillImage" />
        <dc:title></dc:title>
      </cc:Work>
    </rdf:RDF>
  </metadata>
  <g
     inkscape:label="Layer 1"
     inkscape:groupmode="layer"
     id="layer1"
     transform="translate(0,-275.30415)">
    <path
       style="opacity:1;vector-effect:none;fill:#000000;fill-opacity:1;stroke:none;stroke-width:3;stroke-linecap:round;stroke-linejoin:round;stroke-miterlimit:4;stroke-dasharray:none;stroke-dashoffset:0;stroke-opacity:1"
       d="M 6.0234375 5.9375 L 6.0234375 58.345703 L 75.976562 58.345703 L 75.976562 5.9375 L 6.0234375 5.9375 z M 9.5371094 8.9707031 L 18.365234 8.9707031 L 18.365234 19.091797 L 9.5957031 19.091797 L 9.5957031 17.091797 L 16.365234 17.091797 L 16.365234 14.919922 L 9.5371094 14.919922 L 9.5371094 8.9707031 z M 19.554688 8.9707031 L 27.365234 8.9707031 L 28.369141 8.9707031 L 28.369141 19.091797 L 19.554688 19.091797 L 19.554688 8.9707031 z M 29.535156 8.9707031 L 38.363281 8.9707031 L 38.363281 19.091797 L 29.601562 19.091797 L 29.601562 17.091797 L 36.363281 17.091797 L 36.363281 14.919922 L 29.535156 14.919922 L 29.535156 8.9707031 z M 48.660156 10.785156 A 3.1249998 3.1249998 0 0 1 51.785156 13.910156 A 3.1249998 3.1249998 0 0 1 48.660156 17.035156 A 3.1249998 3.1249998 0 0 1 45.535156 13.910156 A 3.1249998 3.1249998 0 0 1 48.660156 10.785156 z M 58.660156 10.785156 A 3.1249998 3.1249998 0 0 1 61.785156 13.910156 A 3.1249998 3.1249998 0 0 1 58.660156 17.035156 A 3.1249998 3.1249998 0 0 1 55.535156 13.910156 A 3.1249998 3.1249998 0 0 1 58.660156 10.785156 z M 68.660156 10.785156 A 3.1249998 3.1249998 0 0 1 71.785156 13.910156 A 3.1249998 3.1249998 0 0 1 68.660156 17.035156 A 3.1249998 3.1249998 0 0 1 65.535156 13.910156 A 3.1249998 3.1249998 0 0 1 68.660156 10.785156 z M 11.537109 10.970703 L 11.537109 12.919922 L 16.365234 12.919922 L 16.365234 10.970703 L 11.537109 10.970703 z M 21.554688 10.970703 L 21.554688 17.091797 L 26.367188 17.091797 L 26.367188 10.970703 L 21.554688 10.970703 z M 31.535156 10.970703 L 31.535156 12.919922 L 36.363281 12.919922 L 36.363281 10.970703 L 31.535156 10.970703 z M 21.396484 22.107422 L 36.042969 22.107422 L 36.042969 36.753906 L 21.396484 36.753906 L 21.396484 22.107422 z M 39.396484 22.107422 L 54.042969 22.107422 L 54.042969 36.753906 L 39.396484 36.753906 L 39.396484 22.107422 z M 57.396484 22.107422 L 72.042969 22.107422 L 72.042969 36.753906 L 57.396484 36.753906 L 57.396484 22.107422 z M 21.396484 40.107422 L 36.042969 40.107422 L 36.042969 54.753906 L 21.396484 54.753906 L 21.396484 40.107422 z M 39.396484 40.107422 L 54.042969 40.107422 L 54.042969 54.753906 L 39.396484 54.753906 L 39.396484 40.107422 z M 57.396484 40.107422 L 72.042969 40.107422 L 72.042969 54.753906 L 57.396484 54.753906 L 57.396484 40.107422 z "
       transform="matrix(0.26458333,0,0,0.26458333,0,275.30415)"
       id="rect835" />
  </g>
</svg>
