<?xml version="1.0" encoding="UTF-8" standalone="no"?>
<!-- Created with Inkscape (http://www.inkscape.org/) -->

<svg
   xmlns:dc="http://purl.org/dc/elements/1.1/"
   xmlns:cc="http://creativecommons.org/ns#"
   xmlns:rdf="http://www.w3.org/1999/02/22-rdf-syntax-ns#"
   xmlns:svg="http://www.w3.org/2000/svg"
   xmlns="http://www.w3.org/2000/svg"
   xmlns:sodipodi="http://sodipodi.sourceforge.net/DTD/sodipodi-0.dtd"
   xmlns:inkscape="http://www.inkscape.org/namespaces/inkscape"
   width="82"
   height="82"
   viewBox="0 0 21.695833 21.695834"
   version="1.1"
   id="svg8"
   inkscape:version="0.92.5 (2060ec1f9f, 2020-04-08)"
   sodipodi:docname="perc-adds.svg">
  <defs
     id="defs2" />
  <sodipodi:namedview
     id="base"
     pagecolor="#ffffff"
     bordercolor="#666666"
     borderopacity="1.0"
     inkscape:pageopacity="0.0"
     inkscape:pageshadow="2"
     inkscape:zoom="3.959798"
     inkscape:cx="-42.829088"
     inkscape:cy="50.555987"
     inkscape:document-units="mm"
     inkscape:current-layer="layer1"
     showgrid="false"
     units="px"
     inkscape:window-width="2560"
     inkscape:window-height="1364"
     inkscape:window-x="2560"
     inkscape:window-y="40"
     inkscape:window-maximized="1" />
  <metadata
     id="metadata5">
    <rdf:RDF>
      <cc:Work
         rdf:about="">
        <dc:format>image/svg+xml</dc:format>
        <dc:type
           rdf:resource="http://purl.org/dc/dcmitype/StillImage" />
        <dc:title></dc:title>
      </cc:Work>
    </rdf:RDF>
  </metadata>
  <g
     inkscape:label="Layer 1"
     inkscape:groupmode="layer"
     id="layer1"
     transform="translate(0,-275.30415)">
    <path
       inkscape:connector-curvature="0"
       id="path258685"
       style="color:#000000;fill:#000000;stroke-width:0.26458329;fill-opacity:0.62895173"
       d="m 5.6814492,280.77632 c -1.0228443,0 -1.948849,0.13566 -2.6417104,0.36663 -0.3464308,0.11553 -0.6355195,0.25343 -0.8552153,0.42658 -0.2196956,0.17313 -0.3844356,0.40284 -0.3844356,0.67602 0,0.0362 0.00337,0.0716 0.00892,0.1062 l 0.00959,3.99442 c 0,0 0.8105649,1.06432 3.8847879,0.96487 3.0742238,-0.0995 3.85018,-1.14029 3.85018,-1.14029 l 0.00373,-3.85121 c 0.00267,-0.0244 0.00546,-0.0489 0.00546,-0.074 0,-0.27318 -0.1647399,-0.50289 -0.3844343,-0.67602 -0.2196971,-0.17315 -0.508784,-0.3111 -0.855215,-0.42658 -0.6928614,-0.23097 -1.6188653,-0.36663 -2.6417099,-0.36663 z m 0,0.52629 c 0.9754401,0 1.8585157,0.13433 2.4751899,0.33989 0.3083371,0.10274 0.5494021,0.2248 0.6958904,0.34025 0.1464869,0.11539 0.1839934,0.20293 0.1839934,0.2628 0,0.0598 -0.03751,0.14735 -0.1839934,0.2628 -0.1464883,0.11539 -0.3875533,0.23745 -0.6958904,0.34023 -0.6166742,0.20555 -1.4997498,0.33989 -2.4751899,0.33989 -0.9754405,0 -1.858516,-0.13434 -2.4751901,-0.33989 -0.3083372,-0.10274 -0.5494026,-0.2248 -0.6958902,-0.34023 -0.1464875,-0.1154 -0.1839947,-0.20295 -0.1839947,-0.2628 0,-0.0598 0.037508,-0.14737 0.1839947,-0.2628 0.1464876,-0.1154 0.387553,-0.23747 0.6958902,-0.34025 0.6166741,-0.20556 1.4997496,-0.33989 2.4751901,-0.33989 z M 2.91502,283.38892 c 0.1889854,0 0.3412637,0.18783 0.3412637,0.42143 v 1.91671 c 0,0.2336 -0.1522783,0.42177 -0.3412637,0.42177 -0.1889855,0 -0.3409212,-0.18817 -0.3409212,-0.42177 v -1.91671 c 0,-0.2336 0.1519357,-0.42143 0.3409212,-0.42143 z m 5.6137197,0 c 0.1889851,0 0.3412632,0.18783 0.3412632,0.42143 v 1.91671 c 0,0.2336 -0.1522781,0.42177 -0.3412632,0.42177 -0.1889848,0 -0.3409206,-0.18817 -0.3409206,-0.42177 v -1.91671 c 0,-0.2336 0.1519358,-0.42143 0.3409206,-0.42143 z m -1.7991722,0.54272 c 0.188985,0 0.3412636,0.18785 0.3412636,0.42144 v 1.9167 c 0,0.2336 -0.1522786,0.42178 -0.3412636,0.42178 -0.1889856,0 -0.3412635,-0.18818 -0.3412635,-0.42178 v -1.9167 c 0,-0.23359 0.1522779,-0.42144 0.3412635,-0.42144 z m -2.0157177,0.0462 c 0.1889857,0 0.3412643,0.18818 0.3412643,0.42178 v 1.9167 c 0,0.23361 -0.1522786,0.42179 -0.3412643,0.42179 -0.1889849,0 -0.3412635,-0.18818 -0.3412635,-0.42179 v -1.9167 c 0,-0.2336 0.1522786,-0.42178 0.3412635,-0.42178 z" />
    <path
       d="m 14.986715,283.35525 c -1.170378,0 -2.229949,0.15524 -3.022748,0.41951 -0.396399,0.1322 -0.727185,0.28999 -0.97857,0.48811 -0.251384,0.19811 -0.439885,0.46095 -0.439885,0.77353 0,0.0414 0.0038,0.0818 0.01021,0.12151 l 0.01093,4.57059 c 0,0 0.92748,1.21782 4.445125,1.10404 3.517646,-0.1139 4.405525,-1.30477 4.405525,-1.30477 l 0.0043,-4.40671 c 0.0031,-0.0279 0.0063,-0.0559 0.0063,-0.0846 0,-0.31259 -0.188502,-0.57542 -0.439885,-0.77352 -0.251386,-0.19812 -0.582171,-0.35598 -0.97857,-0.48811 -0.792799,-0.26428 -1.852368,-0.41951 -3.022746,-0.41951 z m 0,0.6022 c 1.116138,0 2.126586,0.15372 2.832209,0.38892 0.35281,0.11758 0.628647,0.25722 0.796265,0.38932 0.167615,0.13204 0.210532,0.23221 0.210532,0.30071 0,0.0684 -0.04292,0.1686 -0.210532,0.3007 -0.167618,0.13205 -0.443455,0.27171 -0.796265,0.38931 -0.705623,0.23521 -1.716071,0.38892 -2.832209,0.38892 -1.116136,0 -2.126586,-0.15371 -2.832209,-0.38892 -0.35281,-0.11757 -0.628647,-0.25722 -0.796265,-0.38931 -0.167615,-0.13204 -0.210532,-0.23221 -0.210532,-0.3007 0,-0.0684 0.04292,-0.16862 0.210532,-0.30071 0.167618,-0.13203 0.443455,-0.27172 0.796265,-0.38932 0.705623,-0.2352 1.716073,-0.38892 2.832209,-0.38892 z m -3.165456,2.38724 c 0.216246,0 0.390489,0.21492 0.390489,0.48222 v 2.19317 c 0,0.26729 -0.174243,0.48261 -0.390489,0.48261 -0.216244,0 -0.390095,-0.21532 -0.390095,-0.48261 v -2.19317 c 0,-0.2673 0.173851,-0.48222 0.390095,-0.48222 z m 6.423436,0 c 0.216245,0 0.390487,0.21492 0.390487,0.48222 v 2.19317 c 0,0.26729 -0.174242,0.48261 -0.390487,0.48261 -0.216244,0 -0.390094,-0.21532 -0.390094,-0.48261 v -2.19317 c 0,-0.2673 0.17385,-0.48222 0.390094,-0.48222 z m -2.058681,0.621 c 0.216242,0 0.390487,0.21495 0.390487,0.48223 v 2.19316 c 0,0.26731 -0.174245,0.48262 -0.390487,0.48262 -0.216246,0 -0.390489,-0.21531 -0.390489,-0.48262 v -2.19316 c 0,-0.26728 0.174243,-0.48223 0.390489,-0.48223 z m -2.306463,0.0528 c 0.216243,0 0.390487,0.21533 0.390487,0.48262 v 2.19317 c 0,0.2673 -0.174244,0.48262 -0.390487,0.48262 -0.216245,0 -0.390487,-0.21532 -0.390487,-0.48262 v -2.19317 c 0,-0.26729 0.174242,-0.48262 0.390487,-0.48262 z"
       style="color:#000000;fill:#000000;stroke-width:0.26458332"
       id="path2325"
       inkscape:connector-curvature="0" />
    <path
       inkscape:connector-curvature="0"
       id="path2327"
       style="color:#000000;fill:#000000;stroke-width:0.26458332;fill-opacity:0.23793676"
       d="m 8.7099735,276.36717 c -0.5621594,0 -1.0710953,0.0746 -1.4518947,0.2015 -0.1903996,0.0635 -0.3492836,0.13929 -0.4700293,0.23445 -0.1207456,0.0951 -0.2112872,0.2214 -0.2112872,0.37154 0,0.0199 0.00183,0.0393 0.00491,0.0584 l 0.00527,2.19535 c 0,0 0.4454893,0.58495 2.1350941,0.53029 1.6896046,-0.0547 2.1160736,-0.62671 2.1160736,-0.62671 l 0.0021,-2.11663 c 0.0015,-0.0134 0.003,-0.0269 0.003,-0.0407 0,-0.15014 -0.09054,-0.27638 -0.211286,-0.37154 -0.120747,-0.0952 -0.27963,-0.17098 -0.47003,-0.23445 -0.3807987,-0.12694 -0.8897336,-0.2015 -1.451893,-0.2015 z m 0,0.28925 c 0.5361058,0 1.0214472,0.0738 1.3603735,0.1868 0.169463,0.0565 0.301953,0.12355 0.382464,0.187 0.08051,0.0634 0.101124,0.11153 0.101124,0.14444 0,0.0329 -0.02062,0.081 -0.101124,0.14444 -0.08051,0.0634 -0.213001,0.1305 -0.382464,0.18699 -0.3389263,0.11297 -0.8242677,0.1868 -1.3603735,0.1868 -0.5361057,0 -1.0214479,-0.0738 -1.3603745,-0.1868 -0.169463,-0.0565 -0.3019535,-0.12355 -0.382464,-0.18699 -0.08051,-0.0634 -0.1011236,-0.11154 -0.1011236,-0.14444 0,-0.0329 0.020616,-0.081 0.1011236,-0.14444 0.08051,-0.0634 0.213001,-0.13051 0.382464,-0.187 0.3389266,-0.11297 0.8242688,-0.1868 1.3603745,-0.1868 z m -1.5204406,1.14664 c 0.1038676,0 0.1875603,0.10323 0.1875603,0.23162 v 1.05343 c 0,0.12839 -0.083693,0.23181 -0.1875603,0.23181 -0.103867,0 -0.1873714,-0.10342 -0.1873714,-0.23181 v -1.05343 c 0,-0.12839 0.083504,-0.23162 0.1873714,-0.23162 z m 3.0853221,0 c 0.103867,0 0.187559,0.10323 0.187559,0.23162 v 1.05343 c 0,0.12839 -0.08369,0.23181 -0.187559,0.23181 -0.103867,0 -0.187371,-0.10342 -0.187371,-0.23181 v -1.05343 c 0,-0.12839 0.08351,-0.23162 0.187371,-0.23162 z m -0.9888314,0.29828 c 0.1038662,0 0.1875596,0.10324 0.1875596,0.23163 v 1.05342 c 0,0.12839 -0.083693,0.23182 -0.1875596,0.23182 -0.1038676,0 -0.1875603,-0.10343 -0.1875603,-0.23182 v -1.05342 c 0,-0.12839 0.083693,-0.23163 0.1875603,-0.23163 z m -1.1078466,0.0254 c 0.103867,0 0.1875603,0.10342 0.1875603,0.23181 v 1.05343 c 0,0.12839 -0.083693,0.23181 -0.1875603,0.23181 -0.1038669,0 -0.1875595,-0.10342 -0.1875595,-0.23181 v -1.05343 c 0,-0.12839 0.083693,-0.23181 0.1875595,-0.23181 z" />
    <path
       d="m 15.579693,276.72604 c -0.804539,0 -1.532908,0.10671 -2.077892,0.28839 -0.272492,0.0909 -0.49988,0.19934 -0.672686,0.33553 -0.172807,0.13618 -0.302386,0.31686 -0.302386,0.53174 0,0.0285 0.0026,0.0563 0.007,0.0835 l 0.0075,3.1419 c 0,0 0.637566,0.83715 3.055659,0.75893 2.418094,-0.0783 3.028438,-0.89692 3.028438,-0.89692 l 0.0029,-3.02924 c 0.0021,-0.0192 0.0043,-0.0385 0.0043,-0.0582 0,-0.21488 -0.129579,-0.39555 -0.302384,-0.53174 -0.172808,-0.13619 -0.400195,-0.2447 -0.672687,-0.33553 -0.544984,-0.18167 -1.273352,-0.28838 -2.077891,-0.28838 z m 0,0.41397 c 0.767253,0 1.461854,0.10566 1.946911,0.26735 0.242529,0.0808 0.432144,0.17681 0.547367,0.26762 0.115222,0.0908 0.144724,0.15962 0.144724,0.20672 0,0.0471 -0.02951,0.1159 -0.144724,0.20671 -0.115223,0.0908 -0.304838,0.18677 -0.547367,0.26761 -0.485057,0.16169 -1.179658,0.26735 -1.946911,0.26735 -0.767252,0 -1.461854,-0.10566 -1.946912,-0.26735 -0.242528,-0.0808 -0.432143,-0.17682 -0.547367,-0.26761 -0.115222,-0.0908 -0.144724,-0.15963 -0.144724,-0.20671 0,-0.0471 0.0295,-0.11592 0.144724,-0.20672 0.115224,-0.0908 0.304839,-0.18678 0.547367,-0.26762 0.485058,-0.16169 1.17966,-0.26735 1.946912,-0.26735 z m -2.175992,1.64103 c 0.148651,0 0.268429,0.14774 0.268429,0.33149 v 1.50762 c 0,0.18374 -0.119778,0.33175 -0.268429,0.33175 -0.14865,0 -0.268158,-0.14801 -0.268158,-0.33175 v -1.50762 c 0,-0.18375 0.119508,-0.33149 0.268158,-0.33149 z m 4.415587,0 c 0.14865,0 0.268427,0.14774 0.268427,0.33149 v 1.50762 c 0,0.18374 -0.119777,0.33175 -0.268427,0.33175 -0.14865,0 -0.268159,-0.14801 -0.268159,-0.33175 v -1.50762 c 0,-0.18375 0.119509,-0.33149 0.268159,-0.33149 z m -1.415176,0.42689 c 0.14865,0 0.268428,0.14775 0.268428,0.33149 v 1.50762 c 0,0.18374 -0.119778,0.33176 -0.268428,0.33176 -0.148651,0 -0.268428,-0.14802 -0.268428,-0.33176 v -1.50762 c 0,-0.18374 0.119777,-0.33149 0.268428,-0.33149 z m -1.585504,0.0364 c 0.14865,0 0.268428,0.14801 0.268428,0.33176 v 1.50762 c 0,0.18375 -0.119778,0.33176 -0.268428,0.33176 -0.14865,0 -0.268428,-0.14801 -0.268428,-0.33176 v -1.50762 c 0,-0.18375 0.119778,-0.33176 0.268428,-0.33176 z"
       style="color:#000000;fill:#000000;stroke-width:0.26458332;fill-opacity:0.48086521"
       id="path2329"
       inkscape:connector-curvature="0" />
  </g>
</svg>
