<?xml version="1.0" encoding="UTF-8" standalone="no"?>
<!-- Created with Inkscape (http://www.inkscape.org/) -->

<svg
   xmlns:dc="http://purl.org/dc/elements/1.1/"
   xmlns:cc="http://creativecommons.org/ns#"
   xmlns:rdf="http://www.w3.org/1999/02/22-rdf-syntax-ns#"
   xmlns:svg="http://www.w3.org/2000/svg"
   xmlns="http://www.w3.org/2000/svg"
   xmlns:sodipodi="http://sodipodi.sourceforge.net/DTD/sodipodi-0.dtd"
   xmlns:inkscape="http://www.inkscape.org/namespaces/inkscape"
   width="82"
   height="82"
   viewBox="0 0 21.695833 21.695834"
   version="1.1"
   id="svg8"
   inkscape:version="0.92.5 (2060ec1f9f, 2020-04-08)"
   sodipodi:docname="perc-main.svg">
  <defs
     id="defs2" />
  <sodipodi:namedview
     id="base"
     pagecolor="#ffffff"
     bordercolor="#666666"
     borderopacity="1.0"
     inkscape:pageopacity="0.0"
     inkscape:pageshadow="2"
     inkscape:zoom="5.6"
     inkscape:cx="44.292442"
     inkscape:cy="7.4602445"
     inkscape:document-units="mm"
     inkscape:current-layer="layer1"
     showgrid="false"
     units="px"
     inkscape:window-width="2560"
     inkscape:window-height="1364"
     inkscape:window-x="2560"
     inkscape:window-y="40"
     inkscape:window-maximized="1" />
  <metadata
     id="metadata5">
    <rdf:RDF>
      <cc:Work
         rdf:about="">
        <dc:format>image/svg+xml</dc:format>
        <dc:type
           rdf:resource="http://purl.org/dc/dcmitype/StillImage" />
        <dc:title></dc:title>
      </cc:Work>
    </rdf:RDF>
  </metadata>
  <g
     inkscape:label="Layer 1"
     inkscape:groupmode="layer"
     id="layer1"
     transform="translate(0,-275.30415)">
    <path
       inkscape:connector-curvature="0"
       id="path258685"
       style="color:#000000;fill:#000000;stroke-width:0.26458332"
       d="m 10.847893,279.06479 c -1.5426637,0 -2.9392727,0.20461 -3.984253,0.55294 -0.5224902,0.17416 -0.9584966,0.38224 -1.2898438,0.64337 -0.3313472,0.26113 -0.5798095,0.60756 -0.5798095,1.01958 0,0.0546 0.00509,0.10792 0.013436,0.16019 l 0.01447,6.02444 c 0,0 1.2225017,1.60521 5.8590743,1.45521 4.636572,-0.15001 5.80688,-1.71979 5.80688,-1.71979 l 0.0057,-5.80843 c 0.0041,-0.0368 0.0083,-0.0737 0.0083,-0.11162 0,-0.41202 -0.248463,-0.75845 -0.57981,-1.01958 -0.331347,-0.26113 -0.767353,-0.46921 -1.289843,-0.64337 -1.04498,-0.34833 -2.441588,-0.55294 -3.984252,-0.55294 z m 0,0.79375 c 1.471168,0 2.803031,0.2026 3.733105,0.51263 0.465037,0.15501 0.828614,0.33903 1.049548,0.51315 0.220934,0.17411 0.277502,0.30607 0.277502,0.39636 0,0.0903 -0.05657,0.22224 -0.277502,0.39635 -0.220934,0.17412 -0.584511,0.35814 -1.049548,0.51315 -0.930074,0.31003 -2.261937,0.51263 -3.733105,0.51263 -1.4711687,0 -2.8030317,-0.2026 -3.7331055,-0.51263 -0.4650372,-0.15501 -0.8286144,-0.33903 -1.0495484,-0.51315 -0.2209337,-0.17411 -0.2775024,-0.30607 -0.2775024,-0.39635 0,-0.0903 0.056569,-0.22225 0.2775024,-0.39636 0.220934,-0.17412 0.5845112,-0.35814 1.0495484,-0.51315 0.9300738,-0.31003 2.2619368,-0.51263 3.7331055,-0.51263 z m -4.1723551,3.14658 c 0.2850295,0 0.5146971,0.28329 0.5146971,0.63562 v 2.89078 c 0,0.35233 -0.2296676,0.63613 -0.5146971,0.63613 -0.2850296,0 -0.5141807,-0.2838 -0.5141807,-0.63613 v -2.89078 c 0,-0.35233 0.2291511,-0.63562 0.5141807,-0.63562 z m 8.4666661,0 c 0.285029,0 0.514697,0.28329 0.514697,0.63562 v 2.89078 c 0,0.35233 -0.229668,0.63613 -0.514697,0.63613 -0.285029,0 -0.51418,-0.2838 -0.51418,-0.63613 v -2.89078 c 0,-0.35233 0.229151,-0.63562 0.51418,-0.63562 z m -2.713529,0.81855 c 0.285029,0 0.514697,0.2833 0.514697,0.63562 v 2.89078 c 0,0.35233 -0.229668,0.63614 -0.514697,0.63614 -0.28503,0 -0.514697,-0.28381 -0.514697,-0.63614 v -2.89078 c 0,-0.35232 0.229667,-0.63562 0.514697,-0.63562 z m -3.0401247,0.0698 c 0.28503,0 0.514698,0.2838 0.514698,0.63613 v 2.89078 c 0,0.35233 -0.229668,0.63614 -0.514698,0.63614 -0.285029,0 -0.514697,-0.28381 -0.514697,-0.63614 v -2.89078 c 0,-0.35233 0.229668,-0.63613 0.514697,-0.63613 z" />
  </g>
</svg>
