<?xml version="1.0" encoding="UTF-8" standalone="no"?>
<svg
   xmlns:dc="http://purl.org/dc/elements/1.1/"
   xmlns:cc="http://creativecommons.org/ns#"
   xmlns:rdf="http://www.w3.org/1999/02/22-rdf-syntax-ns#"
   xmlns:svg="http://www.w3.org/2000/svg"
   xmlns="http://www.w3.org/2000/svg"
   xmlns:sodipodi="http://sodipodi.sourceforge.net/DTD/sodipodi-0.dtd"
   xmlns:inkscape="http://www.inkscape.org/namespaces/inkscape"
   id="svg8"
   version="1.1"
   viewBox="0 0 21.695833 21.695834"
   height="82"
   width="82"
   sodipodi:docname="vocal-backing.svg"
   inkscape:version="0.92.5 (2060ec1f9f, 2020-04-08)">
  <sodipodi:namedview
     pagecolor="#ffffff"
     bordercolor="#666666"
     borderopacity="1"
     objecttolerance="10"
     gridtolerance="10"
     guidetolerance="10"
     inkscape:pageopacity="0"
     inkscape:pageshadow="2"
     inkscape:window-width="2560"
     inkscape:window-height="1364"
     id="namedview3724"
     showgrid="false"
     inkscape:zoom="8.1403511"
     inkscape:cx="64.991705"
     inkscape:cy="13.50815"
     inkscape:window-x="2560"
     inkscape:window-y="40"
     inkscape:window-maximized="1"
     inkscape:current-layer="svg8"
     showguides="false"
     inkscape:lockguides="true" />
  <defs
     id="defs2" />
  <metadata
     id="metadata5">
    <rdf:RDF>
      <cc:Work
         rdf:about="">
        <dc:format>image/svg+xml</dc:format>
        <dc:type
           rdf:resource="http://purl.org/dc/dcmitype/StillImage" />
        <dc:title></dc:title>
      </cc:Work>
    </rdf:RDF>
  </metadata>
  <g
     style="stroke-width:0.93232512"
     transform="matrix(-1.0724944,-0.01093887,0.01059401,-1.0725719,21.109843,312.0132)"
     id="g861">
    <circle
       style="opacity:1;vector-effect:none;fill:#000000;fill-opacity:1;stroke:none;stroke-width:0.49335536;stroke-linecap:butt;stroke-linejoin:miter;stroke-miterlimit:4;stroke-dasharray:none;stroke-dashoffset:0;stroke-opacity:1"
       id="path854"
       cx="12.345428"
       cy="286.09317"
       r="2.3347526" />
    <path
       style="opacity:1;vector-effect:none;fill:none;fill-opacity:1;stroke:#000000;stroke-width:0.49335539;stroke-linecap:round;stroke-linejoin:round;stroke-miterlimit:4;stroke-dasharray:none;stroke-dashoffset:0;stroke-opacity:1"
       d="m 11.3199,287.94028 2.110989,-0.007 -0.317662,5.70065 -1.510987,0.005 z"
       id="rect856"
       inkscape:connector-curvature="0"
       sodipodi:nodetypes="ccccc" />
  </g>
  <path
     inkscape:connector-curvature="0"
     id="ellipse286347"
     d="m 17.532154,1.7236423 c -0.02757,-0.00393 -0.05677,0.00311 -0.08088,0.020836 -0.01267,0.00975 -0.02258,0.046313 -0.02979,0.093645 h -0.0132 v 3.3728006 a 0.90369573,0.55851466 0 0 0 -0.690912,-0.1996517 0.90369573,0.55851466 0 0 0 -0.903754,0.5585136 0.90369573,0.55851466 0 0 0 0.903754,0.5585218 0.90369573,0.55851466 0 0 0 0.899073,-0.5031792 h 0.0098 V 2.4937029 c 0.140539,0.1881318 0.33215,0.4448167 0.593848,0.7939279 0.14496,0.1933768 0.185011,0.5426689 0.174537,0.8428777 -0.01049,0.300201 -0.107278,0.3984542 -0.107278,0.3984542 0,0 0.07558,-0.00236 0.141333,-0.035778 0.07763,-0.053785 0.06749,-0.045372 0.11579,-0.1060064 0,0 0.05647,-0.2613008 0.06769,-0.5827801 C 18.623385,3.4829189 18.598125,3.0946479 18.394634,2.823172 18.04626,2.3584373 17.603689,1.7661658 17.603689,1.7661658 c -0.018,-0.024142 -0.04394,-0.038529 -0.07152,-0.04262 z"
     style="opacity:1;fill:#000000;fill-opacity:1;stroke:none;stroke-width:0.79375005;stroke-linecap:butt;stroke-linejoin:miter;stroke-miterlimit:4;stroke-dasharray:none;stroke-dashoffset:0;stroke-opacity:1" />
  <g
     style="stroke-width:1.43964529"
     transform="matrix(0.69646492,0,0,0.69277107,1.9134318,5.165808)"
     id="g944">
    <circle
       r="5.3954468"
       cy="8.778182"
       cx="6.142303"
       id="circle936"
       style="opacity:1;vector-effect:none;fill:none;fill-opacity:1;stroke:#000000;stroke-width:0.76181227;stroke-linecap:round;stroke-linejoin:round;stroke-miterlimit:4;stroke-dasharray:none;stroke-dashoffset:0;stroke-opacity:1" />
    <circle
       r="0.59755474"
       cy="7.4408817"
       cx="4.9572954"
       id="circle938"
       style="opacity:1;vector-effect:none;fill:#0e1216;fill-opacity:1;stroke:none;stroke-width:0.76181227;stroke-linecap:round;stroke-linejoin:round;stroke-miterlimit:4;stroke-dasharray:none;stroke-dashoffset:0;stroke-opacity:1" />
    <circle
       style="opacity:1;vector-effect:none;fill:#0e1216;fill-opacity:1;stroke:none;stroke-width:0.76181227;stroke-linecap:round;stroke-linejoin:round;stroke-miterlimit:4;stroke-dasharray:none;stroke-dashoffset:0;stroke-opacity:1"
       id="circle940"
       cx="8.8573637"
       cy="6.3387985"
       r="0.59755474" />
    <ellipse
       ry="1.2646642"
       rx="0.86459583"
       cy="10.818021"
       cx="8.1274939"
       id="ellipse942"
       style="opacity:1;vector-effect:none;fill:none;fill-opacity:1;stroke:#000000;stroke-width:0.76181233;stroke-linecap:round;stroke-linejoin:round;stroke-miterlimit:4;stroke-dasharray:none;stroke-dashoffset:0;stroke-opacity:1" />
  </g>
  <g
     id="g954"
     transform="matrix(-0.69646492,0,0,0.69277107,20.172049,5.165808)"
     style="stroke-width:1.43964529">
    <circle
       style="opacity:1;vector-effect:none;fill:none;fill-opacity:1;stroke:#000000;stroke-width:0.76181227;stroke-linecap:round;stroke-linejoin:round;stroke-miterlimit:4;stroke-dasharray:none;stroke-dashoffset:0;stroke-opacity:1"
       id="circle946"
       cx="6.142303"
       cy="8.778182"
       r="5.3954468" />
    <circle
       style="opacity:1;vector-effect:none;fill:#0e1216;fill-opacity:1;stroke:none;stroke-width:0.76181227;stroke-linecap:round;stroke-linejoin:round;stroke-miterlimit:4;stroke-dasharray:none;stroke-dashoffset:0;stroke-opacity:1"
       id="circle948"
       cx="4.9572954"
       cy="7.4408817"
       r="0.59755474" />
    <circle
       r="0.59755474"
       cy="6.3387985"
       cx="8.8573637"
       id="circle950"
       style="opacity:1;vector-effect:none;fill:#0e1216;fill-opacity:1;stroke:none;stroke-width:0.76181227;stroke-linecap:round;stroke-linejoin:round;stroke-miterlimit:4;stroke-dasharray:none;stroke-dashoffset:0;stroke-opacity:1" />
    <ellipse
       style="opacity:1;vector-effect:none;fill:none;fill-opacity:1;stroke:#000000;stroke-width:0.76181233;stroke-linecap:round;stroke-linejoin:round;stroke-miterlimit:4;stroke-dasharray:none;stroke-dashoffset:0;stroke-opacity:1"
       id="ellipse952"
       cx="8.1274939"
       cy="10.818021"
       rx="0.86459583"
       ry="1.2646642" />
  </g>
  <path
     style="opacity:1;fill:#000000;fill-opacity:1;stroke:none;stroke-width:0.79375005;stroke-linecap:butt;stroke-linejoin:miter;stroke-miterlimit:4;stroke-dasharray:none;stroke-dashoffset:0;stroke-opacity:1"
     d="m 5.7011737,1.7236423 c -0.02757,-0.00393 -0.05677,0.00311 -0.08088,0.020836 -0.01267,0.00975 -0.02258,0.046313 -0.02979,0.093645 h -0.0132 v 3.3728006 a 0.90369573,0.55851466 0 0 0 -0.690912,-0.1996517 0.90369573,0.55851466 0 0 0 -0.903754,0.5585136 0.90369573,0.55851466 0 0 0 0.903754,0.5585218 0.90369573,0.55851466 0 0 0 0.899073,-0.5031792 h 0.0098 V 2.4937029 c 0.140539,0.1881318 0.33215,0.4448167 0.593848,0.7939279 0.14496,0.1933768 0.185011,0.5426689 0.174537,0.8428777 -0.01049,0.300201 -0.107278,0.3984542 -0.107278,0.3984542 0,0 0.07558,-0.00236 0.141333,-0.035778 0.07763,-0.053785 0.06749,-0.045372 0.11579,-0.1060064 0,0 0.05647,-0.2613008 0.06769,-0.5827801 0.01122,-0.3214793 -0.01404,-0.7097503 -0.217531,-0.9812262 -0.348374,-0.4647347 -0.790945,-1.0570062 -0.790945,-1.0570062 -0.018,-0.024142 -0.04394,-0.038529 -0.07152,-0.04262 z"
     id="path956"
     inkscape:connector-curvature="0" />
</svg>
