<?xml version="1.0" encoding="UTF-8" standalone="no"?>
<svg
   xmlns:dc="http://purl.org/dc/elements/1.1/"
   xmlns:cc="http://creativecommons.org/ns#"
   xmlns:rdf="http://www.w3.org/1999/02/22-rdf-syntax-ns#"
   xmlns:svg="http://www.w3.org/2000/svg"
   xmlns="http://www.w3.org/2000/svg"
   xmlns:sodipodi="http://sodipodi.sourceforge.net/DTD/sodipodi-0.dtd"
   xmlns:inkscape="http://www.inkscape.org/namespaces/inkscape"
   id="svg8"
   version="1.1"
   viewBox="0 0 21.695833 21.695834"
   height="82"
   width="82"
   sodipodi:docname="vocal-main.svg"
   inkscape:version="0.92.5 (2060ec1f9f, 2020-04-08)">
  <sodipodi:namedview
     pagecolor="#ffffff"
     bordercolor="#666666"
     borderopacity="1"
     objecttolerance="10"
     gridtolerance="10"
     guidetolerance="10"
     inkscape:pageopacity="0"
     inkscape:pageshadow="2"
     inkscape:window-width="2560"
     inkscape:window-height="1364"
     id="namedview3724"
     showgrid="false"
     inkscape:zoom="4.0701756"
     inkscape:cx="-32.757618"
     inkscape:cy="32.248596"
     inkscape:window-x="2560"
     inkscape:window-y="40"
     inkscape:window-maximized="1"
     inkscape:current-layer="svg8"
     showguides="false"
     inkscape:lockguides="true" />
  <defs
     id="defs2" />
  <metadata
     id="metadata5">
    <rdf:RDF>
      <cc:Work
         rdf:about="">
        <dc:format>image/svg+xml</dc:format>
        <dc:type
           rdf:resource="http://purl.org/dc/dcmitype/StillImage" />
        <dc:title />
      </cc:Work>
    </rdf:RDF>
  </metadata>
  <g
     style="stroke-width:0.635104"
     transform="matrix(1.124681,-1.1018707,1.1024088,1.1243017,-320.74435,-300.14991)"
     id="g861">
    <circle
       style="opacity:1;vector-effect:none;fill:#000000;fill-opacity:1;stroke:none;stroke-width:0.33607584;stroke-linecap:butt;stroke-linejoin:miter;stroke-miterlimit:4;stroke-dasharray:none;stroke-dashoffset:0;stroke-opacity:1"
       id="path854"
       cx="12.345428"
       cy="286.09317"
       r="2.3347526" />
    <path
       style="opacity:1;vector-effect:none;fill:none;fill-opacity:1;stroke:#000000;stroke-width:0.33607587;stroke-linecap:round;stroke-linejoin:round;stroke-miterlimit:4;stroke-dasharray:none;stroke-dashoffset:0;stroke-opacity:1"
       d="m 11.3199,287.94028 2.110989,-0.007 -0.317662,5.70065 -1.510987,0.005 z"
       id="rect856"
       inkscape:connector-curvature="0"
       sodipodi:nodetypes="ccccc" />
  </g>
  <path
     inkscape:connector-curvature="0"
     id="ellipse286347"
     d="m 16.564993,1.5379702 c -0.03589,-0.00511 -0.0739,0.00406 -0.105287,0.027123 -0.0165,0.012689 -0.0294,0.060286 -0.03878,0.1219004 h -0.01718 V 6.077466 A 1.1763671,0.72703481 0 0 0 15.504372,5.8175736 1.1763671,0.72703481 0 0 0 14.327928,6.544607 1.1763671,0.72703481 0 0 0 15.504372,7.271651 1.1763671,0.72703481 0 0 0 16.67472,6.6166481 h 0.01275 V 2.5403805 c 0.182943,0.2448966 0.432369,0.5790309 0.773029,1.0334792 0.188699,0.2517241 0.240834,0.7064079 0.227199,1.0971985 -0.01365,0.3907803 -0.139645,0.5186793 -0.139645,0.5186793 0,0 0.09838,-0.00307 0.183976,-0.046574 0.10105,-0.070014 0.08785,-0.059062 0.150726,-0.1379918 0,0 0.0735,-0.3401427 0.08811,-0.7586217 0.0146,-0.418479 -0.01827,-0.9239027 -0.283167,-1.2772908 -0.453488,-0.6049584 -1.029597,-1.3759355 -1.029597,-1.3759355 -0.02343,-0.031426 -0.0572,-0.050155 -0.0931,-0.05548 z"
     style="opacity:1;fill:#000000;fill-opacity:1;stroke:none;stroke-width:0.79375005;stroke-linecap:butt;stroke-linejoin:miter;stroke-miterlimit:4;stroke-dasharray:none;stroke-dashoffset:0;stroke-opacity:1" />
</svg>
