<?xml version="1.0" encoding="UTF-8" standalone="no"?>
<!-- Created with Inkscape (http://www.inkscape.org/) -->

<svg
   width="32"
   height="24"
   viewBox="0 0 8.4666665 6.35"
   version="1.1"
   id="svg1214"
   xmlns="http://www.w3.org/2000/svg"
   xmlns:svg="http://www.w3.org/2000/svg">
  <defs
     id="defs1211" />
  <g
     id="layer1">
    <path
       id="rect49613"
       style="font-variation-settings:normal;vector-effect:none;fill:#000000;fill-opacity:1;stroke:none;stroke-width:0.264583;stroke-linecap:butt;stroke-linejoin:miter;stroke-miterlimit:4;stroke-dasharray:none;stroke-dashoffset:0;stroke-opacity:1;-inkscape-stroke:none;stop-color:#000000"
       d="m 1.935342,0.52193197 c -0.2529077,0 -0.4564639,0.20355612 -0.4564639,0.45646392 V 5.3567745 c 0,0.2529078 0.2035562,0.4568241 0.4564639,0.4568241 h 0.9068032 c 0.2529078,0 0.4564639,-0.2039163 0.4564639,-0.4568241 V 0.97839589 c 0,-0.2529078 -0.2035561,-0.45646392 -0.4564639,-0.45646392 z m 3.6239703,0 c -0.2167781,0 -0.3912548,0.17447671 -0.3912548,0.39125475 V 5.4219836 c 0,0.2167781 0.1744767,0.391615 0.3912548,0.391615 h 1.0372214 c 0.216778,0 0.3912548,-0.1748369 0.3912548,-0.391615 V 0.91318672 c 0,-0.21677804 -0.1744768,-0.39125475 -0.3912548,-0.39125475 z" />
  </g>
</svg>
