<?xml version="1.0" encoding="UTF-8" standalone="no"?>
<!-- Created with Inkscape (http://www.inkscape.org/) -->

<svg
   width="40"
   height="40"
   viewBox="0 0 10.583333 10.583333"
   version="1.1"
   id="svg765"
   xmlns="http://www.w3.org/2000/svg"
   xmlns:svg="http://www.w3.org/2000/svg">
  <defs
     id="defs762" />
  <g
     id="layer1">
    <path
       id="path65323"
       style="color:#000000;fill:#4f667d;stroke-linecap:round;stroke-linejoin:round;-inkscape-stroke:none"
       d="M 5.2911499 0.78134766 C 2.8046511 0.78134766 0.78134766 2.8046511 0.78134766 5.2911499 C 0.78134766 7.7776488 2.8046511 9.8025024 5.2911499 9.8025024 C 7.7776488 9.8025024 9.8025024 7.7776488 9.8025024 5.2911499 C 9.8025024 2.8046511 7.7776488 0.78134766 5.2911499 0.78134766 z M 5.2911499 1.5740641 C 7.3486758 1.5740642 9.0077189 3.233624 9.0077189 5.2911499 C 9.0077189 7.3486758 7.3486758 9.0077189 5.2911499 9.0077189 C 3.233624 9.0077189 1.5740641 7.3486758 1.5740641 5.2911499 C 1.5740642 3.233624 3.233624 1.5740641 5.2911499 1.5740641 z M 5.2989014 2.5388631 A 0.39687449 0.39687449 0 0 0 4.9025431 2.9372884 L 4.9025431 5.3945028 A 0.39691417 0.39691417 0 0 0 5.043103 5.6973267 L 6.935494 7.3106649 A 0.39687449 0.39687449 0 0 0 7.4941162 7.2657064 A 0.39687449 0.39687449 0 0 0 7.4512248 6.7050171 L 5.6973267 5.2110514 L 5.6973267 2.9372884 A 0.39687449 0.39687449 0 0 0 5.2989014 2.5388631 z " />
  </g>
</svg>
