<?xml version="1.0" encoding="UTF-8" standalone="no"?>
<!-- Created with Inkscape (http://www.inkscape.org/) -->

<svg
   width="40"
   height="40"
   viewBox="0 0 10.583333 10.583333"
   version="1.1"
   id="svg765"
   xmlns="http://www.w3.org/2000/svg"
   xmlns:svg="http://www.w3.org/2000/svg">
  <defs
     id="defs762" />
  <g
     id="layer1">
    <path
       id="path16483"
       style="color:#000000;fill:#4f647d;stroke-linecap:round;stroke-linejoin:round;-inkscape-stroke:none"
       d="M 4.5134196 0.81235352 A 0.39691519 0.39691519 0 0 0 4.1346313 1.0955404 L 1.6619141 9.2578328 A 0.39691519 0.39691519 0 0 0 2.0412191 9.7694295 L 8.5431478 9.7694295 A 0.39691519 0.39691519 0 0 0 8.921936 9.2578328 L 6.4492187 1.0955404 A 0.39691519 0.39691519 0 0 0 6.0683634 0.81235352 L 4.5134196 0.81235352 z M 4.808492 1.6076538 L 5.773291 1.6076538 L 7.2868937 6.5995972 L 3.2964396 6.5995972 L 4.808492 1.6076538 z M 3.0556274 7.3943807 L 7.5282227 7.3943807 L 8.0077799 8.9767131 L 2.5760701 8.9767131 L 3.0556274 7.3943807 z " />
  </g>
</svg>
