<?xml version="1.0" encoding="UTF-8" standalone="no"?>
<svg
   xmlns:dc="http://purl.org/dc/elements/1.1/"
   xmlns:cc="http://creativecommons.org/ns#"
   xmlns:rdf="http://www.w3.org/1999/02/22-rdf-syntax-ns#"
   xmlns:svg="http://www.w3.org/2000/svg"
   xmlns="http://www.w3.org/2000/svg"
   id="svg8"
   version="1.1"
   viewBox="0 0 223.64825 53.212395"
   height="53.212395mm"
   width="223.64825mm">
  <defs
     id="defs2" />
  <metadata
     id="metadata5">
    <rdf:RDF>
      <cc:Work
         rdf:about="">
        <dc:format>image/svg+xml</dc:format>
        <dc:type
           rdf:resource="http://purl.org/dc/dcmitype/StillImage" />
        <dc:title></dc:title>
      </cc:Work>
    </rdf:RDF>
  </metadata>
  <g
     transform="translate(-27.95784,-42.947433)"
     id="layer1">
    <g
       style="stroke-width:0.65869498"
       transform="matrix(0.40167782,0,0,0.40167782,-212.7983,434.73035)"
       id="g7667">
      <g
         transform="translate(62.225397)"
         style="font-size:114.45200348px;line-height:1.25;font-family:'Valera Round';-inkscape-font-specification:'Valera Round';fill:#ffffff;stroke-width:0.65869498"
         id="text1990"
         aria-label="Glissando">
        <path
           id="path3364"
           style="font-family:Audiowide;-inkscape-font-specification:Audiowide;stroke-width:0.65869498"
           d="m 617.28959,-850.84868 q 0,1.56478 -0.55884,2.90601 -0.55885,1.34124 -1.56478,2.34716 -0.95004,0.95004 -2.29127,1.50889 -1.34124,0.55885 -2.90601,0.55885 h -52.41991 q -2.01185,0 -4.35901,-0.44708 -2.29128,-0.50296 -4.58256,-1.50889 -2.23539,-1.00592 -4.30312,-2.5707 -2.06774,-1.62066 -3.6884,-3.85605 -1.56477,-2.29127 -2.51481,-5.25316 -0.95004,-3.01778 -0.95004,-6.76206 v -39.34288 q 0,-2.01185 0.44708,-4.30312 0.50296,-2.34716 1.50888,-4.58256 1.00593,-2.29127 2.62659,-4.35901 1.62066,-2.06773 3.85605,-3.63251 2.29127,-1.62066 5.25317,-2.5707 2.96189,-0.95004 6.70617,-0.95004 h 59.0702 v 14.53004 h -59.0702 q -2.85013,0 -4.35901,1.50889 -1.50889,1.50889 -1.50889,4.47078 v 39.23111 q 0,2.79424 1.50889,4.35901 1.56477,1.50889 4.35901,1.50889 h 45.21077 v -18.21843 h -38.67226 v -14.64181 h 45.8814 q 1.56477,0 2.90601,0.61473 1.34123,0.55885 2.29127,1.56477 1.00593,1.00593 1.56478,2.34716 0.55884,1.28535 0.55884,2.79424 z" />
        <path
           id="path3366"
           style="font-family:Audiowide;-inkscape-font-specification:Audiowide;stroke-width:0.65869498"
           d="m 657.35897,-843.52777 h -6.48263 q -3.12955,0 -6.70617,-1.06181 -3.52074,-1.06181 -6.59441,-3.46486 -3.07366,-2.45893 -5.08551,-6.31498 -2.01185,-3.91193 -2.01185,-9.55629 v -65.55283 h 14.53004 v 65.55283 q 0,2.68247 1.67654,4.30313 1.67654,1.56477 4.19136,1.56477 h 6.48263 z" />
        <path
           id="path3368"
           style="font-family:Audiowide;-inkscape-font-specification:Audiowide;stroke-width:0.65869498"
           d="m 681.4453,-916.34562 h -14.53004 v -13.13292 h 14.53004 z m 0,72.81785 h -14.53004 v -60.41143 h 14.53004 z" />
        <path
           id="path3370"
           style="font-family:Audiowide;-inkscape-font-specification:Audiowide;stroke-width:0.65869498"
           d="m 753.7602,-863.92571 c 0,2.49619 -0.31668,4.75021 -0.95004,6.76206 -0.63336,1.97459 -1.47163,3.72565 -2.51481,5.25316 -1.04319,1.49026 -2.25402,2.77561 -3.63251,3.85605 -1.37849,1.04319 -2.8315,1.90009 -4.35902,2.5707 -1.49026,0.67062 -3.01778,1.17358 -4.58255,1.50889 -1.52751,0.29805 -2.98052,0.44708 -4.35901,0.44708 h -39.34287 v -14.53004 h 39.2311 c 1.9746,0 3.46486,-0.50296 4.47078,-1.50889 1.00593,-1.00593 1.50889,-2.45893 1.50889,-4.35901 -0.18628,-3.87468 -2.14225,-5.81202 -5.8679,-5.81202 H 710.8407 c -3.20406,0 -5.92379,-0.55885 -8.15918,-1.67654 -2.23539,-1.11769 -4.06095,-2.51481 -5.4767,-4.19136 -1.37849,-1.67654 -2.38442,-3.48348 -3.01778,-5.42082 -0.59611,-1.93734 -0.89416,-3.74428 -0.89416,-5.42082 0,-3.24132 0.57748,-5.96105 1.73243,-8.15918 1.15495,-2.23539 2.60796,-4.04233 4.35901,-5.42082 1.75106,-1.37849 3.65114,-2.36579 5.70025,-2.96189 2.04911,-0.63336 3.96782,-0.95004 5.75613,-0.95004 h 28.46037 v 14.53004 h -28.3486 c -0.74513,0 -1.34123,0.0931 -1.78831,0.27942 -0.40982,0.14903 -0.7265,0.37257 -0.95004,0.67062 -0.18629,0.26079 -0.29806,0.55884 -0.33531,0.89415 -0.0373,0.29805 -0.0559,0.59611 -0.0559,0.89416 0.0373,0.5961 0.14904,1.06181 0.33531,1.39712 0.18629,0.33531 0.40983,0.57747 0.67062,0.7265 0.29805,0.14903 0.61473,0.24217 0.95004,0.27942 h 1.06181 22.52156 c 3.72565,0 6.89246,0.67062 9.50041,2.01186 2.60796,1.34123 4.71295,3.0364 6.31498,5.08551 1.60203,2.01185 2.75699,4.20999 3.46486,6.5944 0.74513,2.38442 1.11769,4.60118 1.11769,6.65029 z" />
        <path
           id="path3372"
           style="font-family:Audiowide;-inkscape-font-specification:Audiowide;stroke-width:0.65869498"
           d="m 783.44018,-909.81324 q 0,3.74428 -0.95004,6.76206 -0.95004,2.96189 -2.51481,5.25316 -1.56477,2.23539 -3.63251,3.85605 -2.06774,1.56478 -4.35901,2.5707 -2.23539,1.00593 -4.58255,1.50889 -2.29128,0.44708 -4.35902,0.44708 h -39.34287 v -14.53004 h 39.23111 q 2.96189,0 4.47078,-1.50889 1.50889,-1.50889 1.50889,-4.35901 -0.27943,-5.81202 -5.86791,-5.81202 h -22.52156 q -4.80609,0 -8.15917,-1.67654 -3.35309,-1.67654 -5.47671,-4.19136 -2.06774,-2.51481 -3.01778,-5.42082 -0.89415,-2.90601 -0.89415,-5.42082 0,-4.86198 1.73242,-8.15918 1.73243,-3.35308 4.35902,-5.42082 2.62658,-2.06774 5.70024,-2.96189 3.07366,-0.95004 5.75613,-0.95004 h 35.71037 v 14.53004 h -35.5986 q -1.11769,0 -1.78831,0.27942 -0.61473,0.22354 -0.95004,0.67062 -0.27942,0.39119 -0.33531,0.89415 -0.0559,0.44708 -0.0559,0.89416 0.0559,0.89415 0.3353,1.39712 0.27943,0.50296 0.67062,0.7265 0.44708,0.22354 0.95004,0.27942 0.55885,0 1.06181,0 h 22.52156 q 5.58848,0 9.50042,2.01186 3.91193,2.01185 6.31497,5.08551 2.40305,3.01778 3.46486,6.5944 1.11769,3.57663 1.11769,6.65029 z" />
        <path
           id="path3374"
           style="font-family:Audiowide;-inkscape-font-specification:Audiowide;stroke-width:0.65869498"
           d="m 855.97862,-909.42205 c 0,2.01185 -0.35394,4.19136 -1.06181,6.53852 -0.70787,2.30991 -1.86283,4.47078 -3.46486,6.48263 -1.56477,1.9746 -3.63251,3.63252 -6.2032,4.97375 -2.53345,1.34123 -5.62574,2.01185 -9.27688,2.01185 h -26.20995 c -2.01185,0 -4.19136,-0.35394 -6.53852,-1.06181 -2.30991,-0.70787 -4.47078,-1.8442 -6.48263,-3.40897 -1.9746,-1.60203 -3.63252,-3.66977 -4.97375,-6.20321 -1.34123,-2.5707 -2.01185,-5.68162 -2.01185,-9.33276 0,-2.01185 0.35394,-4.19136 1.06181,-6.53852 0.70787,-2.34716 1.8442,-4.50804 3.40897,-6.48263 1.60203,-2.01185 3.66977,-3.6884 6.20321,-5.02963 2.5707,-1.34123 5.68162,-2.01185 9.33276,-2.01185 h 38.43636 v 13.85942 h -38.43636 c -1.97459,0 -3.50211,0.61473 -4.58255,1.8442 -1.08044,1.19221 -1.62066,2.68247 -1.62066,4.47078 0,1.90008 0.61473,3.39034 1.8442,4.47078 1.26672,1.04319 2.75698,1.56478 4.47078,1.56478 h 26.09818 c 1.9746,0 3.50212,-0.59611 4.58256,-1.78832 1.08043,-1.19221 1.62065,-2.68247 1.62065,-4.47078 v -20.28617 c 0,-1.90008 -0.5961,-3.40897 -1.78831,-4.52666 -1.15495,-1.1177 -2.62659,-1.67655 -4.4149,-1.67655 h -31.9102 v -13.80353 h 31.9102 c 2.01185,0 4.17273,0.35394 6.48264,1.06181 2.34716,0.70787 4.50804,1.86282 6.48263,3.46485 2.01185,1.56477 3.6884,3.63251 5.02963,6.20321 1.34123,2.53345 2.01185,5.62574 2.01185,9.27687 z" />
        <path
           id="path3376"
           style="font-family:Audiowide;-inkscape-font-specification:Audiowide;stroke-width:0.65869498"
           d="m 935.33498,-889.4153 h -14.53004 v -33.53086 q 0,-2.85012 -1.00593,-5.08552 -0.95004,-2.29127 -2.62658,-3.91193 -1.67655,-1.62066 -3.96782,-2.45893 -2.23539,-0.89415 -4.86198,-0.89415 h -25.42757 v 45.88139 h -14.53004 v -53.2023 q 0,-1.50889 0.55885,-2.79424 0.55885,-1.34123 1.56478,-2.29127 1.00592,-1.00593 2.34716,-1.56478 1.34123,-0.55884 2.85012,-0.55884 h 32.74847 q 2.73836,0 5.75613,0.61473 3.07367,0.61473 6.03556,2.01185 3.01778,1.34123 5.70024,3.46486 2.73836,2.06773 4.80609,5.08551 2.12363,2.96189 3.35309,6.87383 1.22947,3.91193 1.22947,8.82979 z" />
        <path
           id="path3378"
           style="font-family:Audiowide;-inkscape-font-specification:Audiowide;stroke-width:0.65869498"
           d="m 1014.3561,-909.81324 c 0,2.49619 -0.3167,4.75021 -0.9501,6.76206 -0.6333,1.97459 -1.4716,3.72565 -2.5148,5.25316 -1.0432,1.49026 -2.254,2.77561 -3.6325,3.85605 -1.3785,1.04319 -2.8315,1.90009 -4.359,2.5707 -1.4903,0.67062 -3.01781,1.17358 -4.58262,1.50889 -1.52747,0.29805 -2.98047,0.44708 -4.359,0.44708 h -26.2099 c -2.4962,0 -4.7316,-0.31668 -6.70621,-0.95004 -1.97459,-0.63336 -3.72565,-1.47163 -5.25317,-2.51482 -1.49026,-1.08043 -2.77561,-2.3099 -3.85605,-3.68839 -1.04318,-1.37849 -1.90008,-2.81287 -2.5707,-4.30313 -0.67061,-1.52751 -1.17357,-3.05503 -1.50888,-4.58255 -0.29805,-1.56477 -0.44708,-3.01778 -0.44708,-4.35901 v -19.67144 c 0,-3.72565 0.67062,-6.87383 2.01185,-9.44452 1.37849,-2.60796 3.07366,-4.71295 5.08551,-6.31498 2.04911,-1.63929 4.26589,-2.81287 6.65033,-3.52074 2.3844,-0.70787 4.58253,-1.06181 6.5944,-1.06181 h 37.07842 v 14.53004 h -36.96672 c -1.93733,0 -3.40897,0.50296 -4.4149,1.50888 -1.00593,0.96867 -1.5089,2.40305 -1.5089,4.30313 v 19.55967 c 0,1.97459 0.48437,3.46485 1.4531,4.47078 1.00587,1.00593 2.45887,1.50889 4.359,1.50889 h 26.2099 c 1.9746,0 3.44623,-0.50296 4.4149,-1.50889 0.96867,-1.00593 1.453,-2.45893 1.453,-4.35901 v -65.55283 h 14.53012 z" />
        <path
           id="path3380"
           style="font-family:Audiowide;-inkscape-font-specification:Audiowide;stroke-width:0.65869498"
           d="m 1093.936,-909.81324 q 0,3.74428 -0.9501,6.76206 -0.95,2.96189 -2.5148,5.25316 -1.5648,2.23539 -3.6325,3.85605 -2.0677,1.56478 -4.359,2.5707 -2.2354,1.00593 -4.5826,1.50889 -2.2912,0.44708 -4.359,0.44708 h -26.2099 q -3.0178,0 -6.5944,-1.06181 -3.5766,-1.06181 -6.6503,-3.46486 -3.0178,-2.45893 -5.0855,-6.31498 -2.0119,-3.91193 -2.0119,-9.55629 v -19.67144 q 0,-5.58848 2.0119,-9.44452 2.0677,-3.91194 5.0855,-6.31498 3.0737,-2.45893 6.6503,-3.52074 3.5766,-1.06181 6.5944,-1.06181 h 26.2099 q 5.5885,0 9.5004,2.01185 3.912,2.01185 6.315,5.08551 2.4031,3.01778 3.4649,6.5944 1.1177,3.57663 1.1177,6.65029 z m -14.5301,-19.55967 q 0,-3.01778 -1.5089,-4.47078 -1.5088,-1.453 -4.359,-1.453 h -26.0982 q -2.906,0 -4.4148,1.50888 -1.5089,1.45301 -1.5089,4.30313 v 19.67144 q 0,2.85012 1.5089,4.35901 1.5088,1.50889 4.4148,1.50889 h 26.0982 q 2.9619,0 4.4149,-1.50889 1.453,-1.50889 1.453,-4.35901 z" />
      </g>
      <g
         transform="translate(-3.8393648,-1.1485793)"
         style="font-size:57.88199997px;line-height:1.25;font-family:'Valera Round';-inkscape-font-specification:'Valera Round';letter-spacing:6px;opacity:1;vector-effect:none;fill:#8cb2d9;fill-opacity:1;stroke:none;stroke-width:0.65869498;stroke-linecap:butt;stroke-linejoin:miter;stroke-miterlimit:4;stroke-dasharray:none;stroke-dashoffset:0;stroke-opacity:1"
         id="text4668-6"
         aria-label="STEMS">
        <path
           id="path9425"
           style="font-family:Audiowide;-inkscape-font-specification:Audiowide;vector-effect:none;fill:#8cb2d9;fill-opacity:1;stroke:none;stroke-width:0.65869498;stroke-linecap:butt;stroke-linejoin:miter;stroke-miterlimit:4;stroke-dasharray:none;stroke-dashoffset:0;stroke-opacity:1"
           d="m 939.01166,-854.23429 c 0,1.45082 -0.18842,2.76032 -0.56525,3.92851 -0.358,1.14935 -0.83847,2.16681 -1.4414,3.05237 -0.60294,0.88557 -1.30951,1.63924 -2.1197,2.26102 -0.8102,0.62178 -1.64866,1.13051 -2.51538,1.52619 -0.86673,0.39567 -1.75229,0.68772 -2.6567,0.87614 -0.88556,0.18842 -1.72402,0.28263 -2.51538,0.28263 h -29.66487 v -7.3483 h 29.66487 c 1.41314,0 2.50597,-0.41452 3.27848,-1.24356 0.79135,-0.82904 1.18703,-1.94071 1.18703,-3.335 0,-0.67831 -0.10363,-1.30009 -0.31089,-1.86534 -0.20726,-0.56525 -0.50873,-1.05514 -0.90441,-1.46966 -0.37683,-0.41452 -0.84788,-0.73483 -1.41313,-0.96093 -0.54641,-0.2261 -1.15877,-0.33915 -1.83708,-0.33915 h -16.90109 c -1.18703,0 -2.46828,-0.20726 -3.84373,-0.62178 -1.37545,-0.43336 -2.65669,-1.12109 -3.84372,-2.06318 -1.16819,-0.94209 -2.14797,-2.17622 -2.93932,-3.70241 -0.77251,-1.52619 -1.15877,-3.39153 -1.15877,-5.59602 0,-2.20449 0.38626,-4.0604 1.15877,-5.56775 0.79135,-1.52619 1.77113,-2.76032 2.93932,-3.70241 1.18703,-0.96093 2.46827,-1.64866 3.84372,-2.06318 1.37545,-0.43336 2.6567,-0.65004 3.84373,-0.65004 h 26.32988 v 7.3483 h -26.32988 c -1.39429,0 -2.48712,0.42394 -3.27847,1.27182 -0.77251,0.84788 -1.15877,1.96897 -1.15877,3.36326 0,1.41314 0.38626,2.53423 1.15877,3.36326 0.79135,0.8102 1.88418,1.2153 3.27847,1.2153 h 16.90109 0.0565 c 0.79135,0.0189 1.62981,0.13192 2.51538,0.33915 0.88557,0.18842 1.76171,0.48989 2.62843,0.90441 0.88557,0.41452 1.72403,0.94209 2.51538,1.58271 0.79135,0.62178 1.4885,1.37545 2.09144,2.26102 0.62178,0.88556 1.11167,1.90302 1.46966,3.05237 0.35799,1.14935 0.53699,2.44943 0.53699,3.90025 z" />
        <path
           id="path9427"
           style="font-family:Audiowide;-inkscape-font-specification:Audiowide;vector-effect:none;fill:#8cb2d9;fill-opacity:1;stroke:none;stroke-width:0.65869498;stroke-linecap:butt;stroke-linejoin:miter;stroke-miterlimit:4;stroke-dasharray:none;stroke-dashoffset:0;stroke-opacity:1"
           d="m 989.9557,-875.48784 h -17.51192 v 33.18041 h -7.3483 v -33.18041 H 947.5553 v -7.3483 h 42.4004 z" />
        <path
           id="path9429"
           style="font-family:Audiowide;-inkscape-font-specification:Audiowide;vector-effect:none;fill:#8cb2d9;fill-opacity:1;stroke:none;stroke-width:0.65869498;stroke-linecap:butt;stroke-linejoin:miter;stroke-miterlimit:4;stroke-dasharray:none;stroke-dashoffset:0;stroke-opacity:1"
           d="m 1035.993,-858.86937 h -30.12 v -7.40483 h 30.12 z m 3.3067,16.56194 h -27.8278 c -1.0175,0 -2.1291,-0.179 -3.335,-0.537 -1.2059,-0.35799 -2.327,-0.94209 -3.3633,-1.75228 -1.0175,-0.82904 -1.8748,-1.8936 -2.5719,-3.19369 -0.6783,-1.31893 -1.0174,-2.9299 -1.0174,-4.83292 v -26.51041 c 0,-0.50873 0.094,-0.98919 0.2826,-1.44139 0.1884,-0.45221 0.4428,-0.84789 0.7631,-1.18704 0.3391,-0.33915 0.7348,-0.60294 1.187,-0.79135 0.4522,-0.18842 0.9421,-0.28263 1.4697,-0.28263 h 34.413 v 7.3483 h -30.7671 v 22.86452 c 0,0.96093 0.2544,1.69576 0.7631,2.20449 0.5087,0.50873 1.253,0.7631 2.2327,0.7631 h 27.7713 z" />
        <path
           id="path9431"
           style="font-family:Audiowide;-inkscape-font-specification:Audiowide;vector-effect:none;fill:#8cb2d9;fill-opacity:1;stroke:none;stroke-width:0.65869498;stroke-linecap:butt;stroke-linejoin:miter;stroke-miterlimit:4;stroke-dasharray:none;stroke-dashoffset:0;stroke-opacity:1"
           d="m 1099.5641,-842.30743 h -7.4049 v -24.13635 l -13.0291,22.92105 q -0.4804,0.87614 -1.3566,1.32835 -0.8479,0.4522 -1.8371,0.4522 -0.9609,0 -1.8088,-0.4522 -0.8196,-0.45221 -1.3,-1.32835 l -13.0857,-22.92105 v 24.13635 h -7.3483 v -37.39155 q 0,-1.27182 0.7349,-2.26102 0.763,-0.98919 1.9783,-1.32834 0.5936,-0.14132 1.1871,-0.0848 0.5935,0.0283 1.1305,0.25436 0.5652,0.19784 1.0174,0.59352 0.4522,0.36742 0.7631,0.90441 l 16.7315,29.08231 16.7316,-29.08231 q 0.65,-1.07399 1.7805,-1.52619 1.1588,-0.4522 2.4023,-0.14131 1.1871,0.33915 1.9502,1.32834 0.7631,0.9892 0.7631,2.26102 z" />
        <path
           id="path9433"
           style="font-family:Audiowide;-inkscape-font-specification:Audiowide;vector-effect:none;fill:#8cb2d9;fill-opacity:1;stroke:none;stroke-width:0.65869498;stroke-linecap:butt;stroke-linejoin:miter;stroke-miterlimit:4;stroke-dasharray:none;stroke-dashoffset:0;stroke-opacity:1"
           d="m 1154.3628,-854.23429 c 0,1.45082 -0.1884,2.76032 -0.5653,3.92851 -0.3579,1.14935 -0.8384,2.16681 -1.4414,3.05237 -0.6029,0.88557 -1.3095,1.63924 -2.1197,2.26102 -0.8102,0.62178 -1.6486,1.13051 -2.5153,1.52619 -0.8667,0.39567 -1.7523,0.68772 -2.6567,0.87614 -0.8856,0.18842 -1.7241,0.28263 -2.5154,0.28263 h -29.6649 v -7.3483 h 29.6649 c 1.4131,0 2.506,-0.41452 3.2785,-1.24356 0.7913,-0.82904 1.187,-1.94071 1.187,-3.335 0,-0.67831 -0.1036,-1.30009 -0.3109,-1.86534 -0.2073,-0.56525 -0.5087,-1.05514 -0.9044,-1.46966 -0.3769,-0.41452 -0.8479,-0.73483 -1.4131,-0.96093 -0.5465,-0.2261 -1.1588,-0.33915 -1.8371,-0.33915 h -16.9011 c -1.187,0 -2.4682,-0.20726 -3.8437,-0.62178 -1.3755,-0.43336 -2.6567,-1.12109 -3.8438,-2.06318 -1.1681,-0.94209 -2.1479,-2.17622 -2.9393,-3.70241 -0.7725,-1.52619 -1.1587,-3.39153 -1.1587,-5.59602 0,-2.20449 0.3862,-4.0604 1.1587,-5.56775 0.7914,-1.52619 1.7712,-2.76032 2.9393,-3.70241 1.1871,-0.96093 2.4683,-1.64866 3.8438,-2.06318 1.3755,-0.43336 2.6567,-0.65004 3.8437,-0.65004 h 26.3299 v 7.3483 h -26.3299 c -1.3943,0 -2.4871,0.42394 -3.2785,1.27182 -0.7725,0.84788 -1.1587,1.96897 -1.1587,3.36326 0,1.41314 0.3862,2.53423 1.1587,3.36326 0.7914,0.8102 1.8842,1.2153 3.2785,1.2153 h 16.9011 0.056 c 0.7914,0.0189 1.6299,0.13192 2.5154,0.33915 0.8855,0.18842 1.7617,0.48989 2.6284,0.90441 0.8856,0.41452 1.7241,0.94209 2.5154,1.58271 0.7913,0.62178 1.4885,1.37545 2.0914,2.26102 0.6218,0.88556 1.1117,1.90302 1.4697,3.05237 0.358,1.14935 0.537,2.44943 0.537,3.90025 z" />
      </g>
    </g>
  </g>
</svg>
