<?xml version="1.0" encoding="UTF-8" standalone="no"?>
<svg
   xmlns:dc="http://purl.org/dc/elements/1.1/"
   xmlns:cc="http://creativecommons.org/ns#"
   xmlns:rdf="http://www.w3.org/1999/02/22-rdf-syntax-ns#"
   xmlns:svg="http://www.w3.org/2000/svg"
   xmlns="http://www.w3.org/2000/svg"
   id="svg1921"
   version="1.1"
   viewBox="0 0 16.933333 16.933334"
   height="64"
   width="64">
  <defs
     id="defs1915" />
  <metadata
     id="metadata1918">
    <rdf:RDF>
      <cc:Work
         rdf:about="">
        <dc:format>image/svg+xml</dc:format>
        <dc:type
           rdf:resource="http://purl.org/dc/dcmitype/StillImage" />
        <dc:title></dc:title>
      </cc:Work>
    </rdf:RDF>
  </metadata>
  <g
     transform="translate(0,-280.06665)"
     id="layer1">
    <rect
       ry="3.8270147"
       rx="3.8270147"
       y="280.06665"
       x="0"
       height="16.933334"
       width="16.933332"
       id="rect10555"
       style="fill:#0e1216;fill-opacity:1;stroke:none;stroke-width:0.26458329;stroke-miterlimit:4;stroke-dasharray:none;stroke-opacity:1" />
    <path
       d="m 15.081245,293.93938 q 0,0.25831 -0.09225,0.47972 -0.09226,0.22142 -0.258311,0.38747 -0.156831,0.15683 -0.378238,0.24908 -0.221412,0.0922 -0.479721,0.0922 H 5.2193376 q -0.3321122,0 -0.7195771,-0.0738 -0.3782408,-0.0829 -0.7564817,-0.24909 -0.3690135,-0.16595 -0.7103514,-0.42426 -0.3413387,-0.26754 -0.6088741,-0.63656 -0.2583096,-0.37823 -0.4151404,-0.86719 -0.1568316,-0.49816 -0.1568316,-1.11626 v -6.49465 q 0,-0.33212 0.073806,-0.71035 0.083029,-0.38746 0.2490833,-0.75649 0.1660573,-0.37823 0.4335934,-0.71957 0.2675354,-0.34134 0.6365497,-0.59965 0.3782384,-0.26754 0.8671839,-0.42437 0.4889438,-0.15683 1.1070428,-0.15683 h 9.7512036 v 2.3986 H 5.2193376 q -0.4704939,0 -0.7195771,0.24908 -0.2490856,0.24908 -0.2490856,0.73803 v 6.4762 q 0,0.46127 0.2490856,0.71958 0.2583089,0.24909 0.7195771,0.24909 H 12.682652 V 289.7419 H 6.2987032 v -2.41705 h 7.5740198 q 0.25831,0 0.47972,0.10148 0.221407,0.0922 0.378239,0.2583 0.166056,0.16606 0.25831,0.38747 0.09226,0.21217 0.09226,0.46126 z"
       style="font-size:114.45200348px;line-height:1.25;font-family:Audiowide;-inkscape-font-specification:Audiowide;fill:#8cb2d9;fill-opacity:1;stroke-width:0.26458317"
       id="path3364" />
  </g>
</svg>
